<svg width="12" height="10" viewBox="0 0 12 10" fill="none" xmlns="http://www.w3.org/2000/svg">
<path d="M4.21653 10C4.04954 10 3.88255 9.92397 3.75564 9.77349L0.191372 5.54746C-0.0637907 5.24492 -0.0637907 4.75547 0.191372 4.45293C0.446535 4.15039 0.859338 4.15039 1.1145 4.45293L4.67876 8.68055C4.93393 8.98309 4.93393 9.47253 4.67876 9.77507C4.55052 9.92555 4.38352 10 4.21653 10Z" fill="currentColor"/>
<path d="M4.21648 10C4.04949 10 3.88249 9.92397 3.75558 9.77349C3.50042 9.47095 3.50042 8.98151 3.75558 8.67897L10.8854 0.226904C11.1406 -0.0756346 11.5534 -0.0756346 11.8086 0.226904C12.0637 0.529442 12.0637 1.01889 11.8086 1.32143L4.67871 9.77349C4.55046 9.92555 4.38347 10 4.21648 10Z" fill="currentColor"/>
</svg>
