<svg width="20" height="12" viewBox="0 0 20 12" fill="none" xmlns="http://www.w3.org/2000/svg">
<g clip-path="url(#clip0_593_10812)">
<path fill-rule="evenodd" clip-rule="evenodd" d="M1.83291 6.88624C5.81293 6.88624 7.4988 11.2349 7.57149 11.4262C7.65298 11.6455 7.81803 11.8235 8.03048 11.9215C8.24292 12.0195 8.48552 12.0296 8.70522 11.9492C8.92591 11.8654 9.10438 11.6973 9.20165 11.4822C9.29892 11.2671 9.30705 11.0224 9.22422 10.8013C8.61772 9.30533 7.67937 7.96658 6.47994 6.88624L19.1239 6.88623C19.3407 6.86019 19.5403 6.75565 19.6852 6.59233C19.83 6.42902 19.91 6.21847 19.91 6.00017C19.91 5.78186 19.83 5.57101 19.6852 5.40769C19.5403 5.24438 19.3407 5.13984 19.1239 5.11379L6.47994 5.11379C7.67937 4.03345 8.61772 2.69469 9.22422 1.19872C9.26525 1.08987 9.2844 0.974073 9.28065 0.857804C9.2769 0.741536 9.25031 0.627232 9.20235 0.521249C9.15439 0.415265 9.08602 0.319674 9.00115 0.24011C8.91628 0.160548 8.81657 0.0983849 8.70771 0.0573559C8.59886 0.016326 8.48307 -0.00274654 8.3668 0.00100332C8.25053 0.00475318 8.13607 0.0315018 8.03009 0.0794602C7.9241 0.12742 7.82867 0.195719 7.7491 0.280584C7.66954 0.365451 7.60746 0.465012 7.56643 0.573865C7.54985 0.624874 5.83465 5.11379 1.82785 5.11379C1.61117 5.14045 1.41177 5.24552 1.26737 5.40925C1.12296 5.57298 1.04359 5.78404 1.04421 6.00235C1.04484 6.22066 1.12545 6.4313 1.27079 6.5942C1.41613 6.7571 1.61608 6.86082 1.83291 6.88624Z" fill="currentColor"/>
</g>
<defs>
<clipPath id="clip0_593_10812">
<rect width="19.0483" height="12" fill="currentColor" transform="translate(20 12) rotate(180)"/>
</clipPath>
</defs>
</svg>
