<svg width="20" height="12" viewBox="0 0 20 12" fill="none" xmlns="http://www.w3.org/2000/svg">
<g clip-path="url(#clip0_593_10814)">
<path fill-rule="evenodd" clip-rule="evenodd" d="M18.1671 5.11376C14.1871 5.11376 12.5012 0.765125 12.4285 0.573839C12.347 0.354543 12.182 0.176479 11.9695 0.0785012C11.7571 -0.0194763 11.5145 -0.0295948 11.2948 0.0507922C11.0741 0.134596 10.8956 0.302707 10.7983 0.517799C10.7011 0.732891 10.693 0.977637 10.7758 1.19869C11.3823 2.69467 12.3206 4.03342 13.5201 5.11376L0.876094 5.11377C0.659347 5.13981 0.459695 5.24435 0.31483 5.40767C0.169965 5.57098 0.0899663 5.78153 0.0899663 5.99983C0.0899664 6.21814 0.169965 6.42899 0.31483 6.59231C0.459695 6.75562 0.659347 6.86016 0.876094 6.88621L13.5201 6.88621C12.3206 7.96655 11.3823 9.30531 10.7758 10.8013C10.7347 10.9101 10.7156 11.0259 10.7193 11.1422C10.7231 11.2585 10.7497 11.3728 10.7976 11.4788C10.8456 11.5847 10.914 11.6803 10.9989 11.7599C11.0837 11.8395 11.1834 11.9016 11.2923 11.9426C11.4011 11.9837 11.5169 12.0027 11.6332 11.999C11.7495 11.9952 11.8639 11.9685 11.9699 11.9205C12.0759 11.8726 12.1713 11.8043 12.2509 11.7194C12.3305 11.6345 12.3925 11.535 12.4336 11.4261C12.4502 11.3751 14.1653 6.88621 18.1721 6.88621C18.3888 6.85955 18.5882 6.75448 18.7326 6.59075C18.877 6.42702 18.9564 6.21596 18.9558 5.99765C18.9552 5.77934 18.8746 5.5687 18.7292 5.4058C18.5839 5.2429 18.3839 5.13918 18.1671 5.11376Z" fill="currentColor"/>
</g>
<defs>
<clipPath id="clip0_593_10814">
<rect width="19.0483" height="12" fill="currentColor"/>
</clipPath>
</defs>
</svg>
