<svg width="24" height="24" viewBox="0 0 24 24" fill="none" xmlns="http://www.w3.org/2000/svg">
<g clip-path="url(#clip0_972_17276)">
<path d="M12.0006 0C5.372 0 0 5.372 0 12.0006C0 18.6274 5.372 24 12.0006 24C18.6274 24 24 18.6274 24 12.0006C24 5.372 18.6274 0 12.0006 0ZM19.9126 8.28114L10.8783 17.3154C10.6577 17.536 10.3691 17.6457 10.08 17.6457C9.79086 17.6457 9.50114 17.536 9.28114 17.3154L4.08686 12.1206C3.64571 11.6794 3.64571 10.9646 4.08686 10.524C4.528 10.0823 5.24286 10.0823 5.684 10.524L10.08 14.92L18.3154 6.684C18.7566 6.24286 19.4714 6.24286 19.9126 6.684C20.3537 7.12514 20.3537 7.84 19.9126 8.28114Z" fill="currentColor"/>
</g>
<defs>
<clipPath id="clip0_972_17276">
<rect width="24" height="24" fill="white"/>
</clipPath>
</defs>
</svg>
