<svg width="24" height="24" viewBox="0 0 24 24" fill="none" xmlns="http://www.w3.org/2000/svg">
<path d="M12 0C15.1826 0 18.2348 1.26428 20.4853 3.51472C22.7357 5.76516 24 8.8174 24 12C24 15.1826 22.7357 18.2348 20.4853 20.4853C18.2348 22.7357 15.1826 24 12 24C8.8174 24 5.76516 22.7357 3.51472 20.4853C1.26428 18.2348 0 15.1826 0 12C0 8.8174 1.26428 5.76516 3.51472 3.51472C5.76516 1.26428 8.8174 0 12 0ZM13.212 12L17.4549 7.75714C17.5367 7.67807 17.602 7.58349 17.6469 7.47892C17.6919 7.37434 17.7155 7.26187 17.7165 7.14806C17.7175 7.03425 17.6958 6.92138 17.6527 6.81604C17.6096 6.7107 17.546 6.615 17.4655 6.53452C17.385 6.45404 17.2893 6.39039 17.184 6.3473C17.0786 6.3042 16.9658 6.28251 16.8519 6.2835C16.7381 6.28449 16.6257 6.30813 16.5211 6.35306C16.4165 6.39798 16.3219 6.46328 16.2429 6.54514L12 10.788L7.75714 6.54514C7.59548 6.38901 7.37897 6.30261 7.15423 6.30457C6.92949 6.30652 6.71451 6.39666 6.55558 6.55558C6.39666 6.71451 6.30652 6.92949 6.30457 7.15423C6.30261 7.37897 6.38901 7.59548 6.54514 7.75714L10.788 12L6.54514 16.2429C6.46328 16.3219 6.39798 16.4165 6.35306 16.5211C6.30813 16.6257 6.28449 16.7381 6.2835 16.8519C6.28251 16.9658 6.3042 17.0786 6.3473 17.184C6.39039 17.2893 6.45404 17.385 6.53452 17.4655C6.615 17.546 6.7107 17.6096 6.81604 17.6527C6.92138 17.6958 7.03425 17.7175 7.14806 17.7165C7.26187 17.7155 7.37434 17.6919 7.47892 17.6469C7.58349 17.602 7.67807 17.5367 7.75714 17.4549L12 13.212L16.2429 17.4549C16.3219 17.5367 16.4165 17.602 16.5211 17.6469C16.6257 17.6919 16.7381 17.7155 16.8519 17.7165C16.9658 17.7175 17.0786 17.6958 17.184 17.6527C17.2893 17.6096 17.385 17.546 17.4655 17.4655C17.546 17.385 17.6096 17.2893 17.6527 17.184C17.6958 17.0786 17.7175 16.9658 17.7165 16.8519C17.7155 16.7381 17.6919 16.6257 17.6469 16.5211C17.602 16.4165 17.5367 16.3219 17.4549 16.2429L13.212 12Z" fill="currentColor"/>
</svg>
