<svg width="16" height="16" viewBox="0 0 16 16" fill="none" xmlns="http://www.w3.org/2000/svg">
<g clip-path="url(#clip0_505_11995)">
<path d="M9.40055 7.99459L15.7039 1.6912C16.0913 1.3045 16.0913 0.676721 15.7039 0.290023C15.3179 -0.0966744 14.6901 -0.0966744 14.304 0.290023L8.00001 6.59407L1.696 0.290039C1.30996 -0.0966584 0.68216 -0.0966584 0.296118 0.290039C-0.091219 0.676737 -0.091219 1.30452 0.296118 1.69122L6.59949 7.99459L0.296118 14.298C-0.091219 14.6847 -0.091219 15.3125 0.296118 15.6992C0.68216 16.0859 1.30996 16.0859 1.696 15.6992L8.00002 9.39512L14.3041 15.6992C14.6901 16.0859 15.3179 16.0859 15.7039 15.6992C16.0913 15.3125 16.0913 14.6847 15.7039 14.298L9.40055 7.99459Z" fill="currentColor"/>
</g>
<defs>
<clipPath id="clip0_505_11995">
<rect width="16" height="16" fill="currentColor"/>
</clipPath>
</defs>
</svg>
