<svg width="12" height="12" viewBox="0 0 12 12" fill="none" xmlns="http://www.w3.org/2000/svg">
<path d="M4.08533 0L8.044 0.000301756C8.12833 0.000905316 8.20967 0.00211238 8.288 0.00392304L8.51467 0.010864L8.72533 0.0220298C9.402 0.0654858 9.83633 0.177143 10.2837 0.39382C10.8292 0.655866 11.2756 1.05993 11.565 1.55385C11.8043 1.95884 11.9277 2.35206 11.9757 2.96466L11.988 3.15539L11.9957 3.3606L11.998 3.46894L12 3.69829V10.7928C12 10.9986 11.9419 11.2009 11.8313 11.3806C11.7206 11.5604 11.561 11.7115 11.3677 11.8197C11.1743 11.9279 10.9536 11.9895 10.7266 11.9988C10.4995 12.008 10.2736 11.9646 10.0703 11.8725L6.09667 10.0733L6.04667 10.0513L6.00033 10.0326L5.95367 10.0513L1.93 11.8722C1.72672 11.9643 1.50081 12.0078 1.27373 11.9986C1.04665 11.9894 0.82594 11.9278 0.632559 11.8197C0.439179 11.7115 0.279551 11.5604 0.168839 11.3807C0.0581277 11.2009 7.71226e-06 10.9986 0 10.7928L0.000333309 3.5815C0.000999981 3.50515 0.00233326 3.43151 0.00433326 3.3606L0.0120001 3.15539L0.0243332 2.96466C0.0723332 2.35206 0.195667 1.95884 0.435 1.55385C0.724447 1.05993 1.17076 0.655866 1.71633 0.39382C2.16367 0.177143 2.598 0.0654858 3.27467 0.0220298L3.48533 0.010864L3.712 0.00392304L3.83167 0.00181064L4.08533 0ZM8.02533 1.20741H3.97467L3.76867 1.20983L3.673 1.21194L3.49467 1.21797L3.33333 1.22703C3.25667 1.23246 3.185 1.2388 3.11833 1.24634L2.991 1.26294C2.808 1.2901 2.661 1.32873 2.52433 1.38063L2.43433 1.41745C2.40433 1.43043 2.375 1.44401 2.34567 1.45819C2.0323 1.60776 1.77621 1.83961 1.611 2.12331C1.59536 2.14977 1.58035 2.17653 1.566 2.20358L1.52533 2.28506C1.468 2.40879 1.42533 2.54187 1.39533 2.70755L1.377 2.82283C1.36867 2.88318 1.36167 2.94776 1.356 3.01748L1.346 3.16354C1.34451 3.18968 1.34318 3.21584 1.342 3.242L1.33667 3.4116L1.334 3.5981L1.33333 10.7925L5.34067 8.9794C5.512 8.90425 5.62367 8.86834 5.76067 8.8445C5.91874 8.81666 6.08126 8.81666 6.23933 8.8445C6.39333 8.87136 6.51533 8.91361 6.72667 9.00927L10.6667 10.7928L10.6663 3.5984L10.6637 3.4113C10.663 3.38252 10.6622 3.35375 10.6613 3.32499L10.6547 3.16354L10.6447 3.01748C10.6387 2.94807 10.6317 2.88318 10.6233 2.82283L10.605 2.70755C10.5804 2.56253 10.5368 2.42069 10.475 2.28506L10.4343 2.20358C10.42 2.17653 10.405 2.14977 10.3893 2.12331C10.2241 1.83961 9.96803 1.60776 9.65467 1.45819C9.62544 1.44403 9.59588 1.43044 9.566 1.41745L9.476 1.38063C9.33933 1.32873 9.19233 1.2901 9.00933 1.26294L8.882 1.24634C8.81533 1.2388 8.744 1.23246 8.667 1.22733L8.50567 1.21828C8.47679 1.21693 8.4479 1.21572 8.419 1.21466L8.23167 1.20983L8.02533 1.20741Z" fill="currentColor"/>
</svg>
