<svg width="14" height="14" viewBox="0 0 14 14" fill="none" xmlns="http://www.w3.org/2000/svg">
<path d="M3.59448 9.77958C3.73483 9.77958 3.86943 9.72382 3.96868 9.62458C4.06792 9.52534 4.12368 9.39073 4.12368 9.25038C4.12368 9.11003 4.06792 8.97542 3.96868 8.87618C3.86943 8.77693 3.73483 8.72118 3.59448 8.72118C3.45877 8.72118 3.32861 8.66727 3.23265 8.5713C3.13669 8.47534 3.08278 8.34519 3.08278 8.20948V3.62308C3.08278 3.48737 3.13669 3.35721 3.23265 3.26125C3.32861 3.16529 3.45877 3.11138 3.59448 3.11138H8.18088C8.31659 3.11138 8.44674 3.16529 8.5427 3.26125C8.63867 3.35721 8.69258 3.48737 8.69258 3.62308C8.69258 3.76343 8.74833 3.89804 8.84758 3.99728C8.94682 4.09652 9.08142 4.15228 9.22178 4.15228C9.36213 4.15228 9.49673 4.09652 9.59598 3.99728C9.69522 3.89804 9.75098 3.76343 9.75098 3.62308C9.75005 3.20695 9.58433 2.80812 9.29008 2.51387C8.99583 2.21962 8.59701 2.0539 8.18088 2.05298H3.59448C3.17834 2.0539 2.77952 2.21962 2.48527 2.51387C2.19102 2.80812 2.0253 3.20695 2.02438 3.62308V8.20948C2.0253 8.62561 2.19102 9.02444 2.48527 9.31869C2.77952 9.61294 3.17834 9.77865 3.59448 9.77958Z" fill="currentColor"/>
<path d="M5.9409 12.0735H10.3334C10.5512 12.0738 10.767 12.0311 10.9683 11.9478C11.1696 11.8646 11.3526 11.7424 11.5066 11.5884C11.6607 11.4344 11.7828 11.2514 11.866 11.0501C11.9493 10.8488 11.992 10.633 11.9917 10.4152V6.00519C11.9921 5.78729 11.9494 5.57145 11.8662 5.37005C11.783 5.16865 11.6609 4.98565 11.5069 4.83153C11.3528 4.67741 11.1699 4.55521 10.9685 4.47193C10.7671 4.38864 10.5513 4.34592 10.3334 4.34619H5.9409C5.72305 4.34592 5.50729 4.38862 5.30597 4.47186C5.10465 4.5551 4.92173 4.67724 4.76769 4.83128C4.61364 4.98532 4.4915 5.16824 4.40827 5.36956C4.32503 5.57088 4.28232 5.78664 4.2826 6.00449V10.4145C4.2651 11.3322 5.0232 12.0735 5.9409 12.0735ZM10.3334 5.40459C10.4124 5.40394 10.4907 5.41901 10.5637 5.44893C10.6368 5.47884 10.7032 5.52301 10.759 5.57884C10.8149 5.63468 10.859 5.70107 10.889 5.77415C10.9189 5.84723 10.9339 5.92553 10.9333 6.00449V10.4145C10.9339 10.4935 10.9189 10.5718 10.889 10.6448C10.859 10.7179 10.8149 10.7843 10.759 10.8401C10.7032 10.896 10.6368 10.9401 10.5637 10.9701C10.4907 11 10.4124 11.015 10.3334 11.0144H5.9409C5.86194 11.015 5.78363 11 5.71056 10.9701C5.63748 10.9401 5.57109 10.896 5.51525 10.8401C5.45941 10.7843 5.41525 10.7179 5.38533 10.6448C5.35542 10.5718 5.34034 10.4935 5.341 10.4145V6.00449C5.34034 5.92553 5.35542 5.84723 5.38533 5.77415C5.41525 5.70107 5.45941 5.63468 5.51525 5.57884C5.57109 5.52301 5.63748 5.47884 5.71056 5.44893C5.78363 5.41901 5.86194 5.40394 5.9409 5.40459H10.3334Z" fill="currentColor"/>
</svg>
