<svg width="14" height="14" viewBox="0 0 14 14" fill="none" xmlns="http://www.w3.org/2000/svg">
<g>
<path d="M11.844 12.4039H6.31403L5.75403 11.8439V9.08591H6.87403V11.2839H11.284V6.87391H9.08603V5.75391H11.844L12.404 6.31391V11.8439L11.844 12.4039Z" fill="currentColor"/>
<path d="M4.5719 5.16601L5.16606 4.57227L5.75966 5.16587L5.16606 5.76003L4.5719 5.16601ZM5.94502 6.53549L6.5389 5.94147L7.13292 6.53549L6.5389 7.12951L5.94502 6.53549ZM7.318 7.90497L7.91202 7.31095L8.5059 7.90497L7.91202 8.49885L7.318 7.90497Z" fill="currentColor"/>
<path d="M4.91395 8.2457H2.15595L1.59595 7.6857V2.1557L2.15595 1.5957H7.68595L8.24595 2.1557V4.9137H7.12595V2.7157H2.71595V7.1257H4.91395V8.2457Z" fill="currentColor"/>
</g>
</svg>
