<svg width="10" height="10" viewBox="0 0 10 10" fill="none" xmlns="http://www.w3.org/2000/svg">
<path d="M4.9956 8.94665L8.40392 5.54592C8.43764 5.50979 8.4784 5.48094 8.52369 5.46115C8.56897 5.44136 8.61783 5.43105 8.66726 5.43086C8.71668 5.43116 8.76551 5.44158 8.81076 5.46147C8.856 5.48136 8.89669 5.5103 8.93033 5.54651C9.00703 5.62337 9.04514 5.71163 9.04539 5.80984C9.04509 5.85926 9.03467 5.9081 9.01478 5.95334C8.99489 5.99858 8.96595 6.03928 8.92974 6.07292L5.25792 9.73656C5.18106 9.81325 5.09316 9.85173 4.99459 9.85162C4.94517 9.85131 4.89633 9.8409 4.85109 9.82101C4.80585 9.80112 4.76515 9.77218 4.73151 9.73597L1.05146 6.0477C1.01533 6.01398 0.986482 5.97323 0.966694 5.92794C0.946906 5.88265 0.936598 5.83379 0.936404 5.78437C0.936802 5.73498 0.947299 5.6862 0.967248 5.64102C0.987198 5.59584 1.01618 5.55522 1.05241 5.52165C1.08613 5.48552 1.12688 5.45667 1.17217 5.43688C1.21746 5.41709 1.26632 5.40678 1.31574 5.40659C1.36516 5.40689 1.414 5.41731 1.45924 5.4372C1.50449 5.45709 1.54518 5.48603 1.57882 5.52224L4.99524 8.94629L4.9956 8.94665ZM5.37357 9.47348C5.37002 9.57272 5.32865 9.66685 5.25792 9.73656C5.18642 9.8079 5.09888 9.84316 4.9946 9.84305C4.94576 9.84412 4.89722 9.83517 4.85197 9.81675C4.80672 9.79833 4.76573 9.77084 4.73151 9.73597C4.66095 9.6661 4.61978 9.57189 4.61645 9.47264L4.62643 0.525803C4.62998 0.426562 4.67135 0.332437 4.74208 0.262726C4.77637 0.22793 4.81742 0.200529 4.86271 0.182214C4.908 0.163899 4.95656 0.155058 5.0054 0.156237C5.05424 0.155167 5.10278 0.164116 5.14803 0.182532C5.19328 0.200948 5.23428 0.228441 5.26849 0.263313C5.33983 0.334819 5.37795 0.422359 5.38355 0.526647L5.37357 9.47348Z" fill="currentColor"/>
</svg>
