<svg width="14" height="14" viewBox="0 0 14 14" fill="none" xmlns="http://www.w3.org/2000/svg">
<path d="M1.86206 7.0248V12.0383C1.86206 12.3992 2.18198 12.6918 2.57847 12.6918H6.15776C6.55288 12.6918 6.87417 12.3992 6.87417 12.0383C6.87417 11.6773 6.55425 11.3848 6.15776 11.3848H3.29487V2.66348H6.15913C6.55425 2.66348 6.87554 2.3709 6.87554 2.00996C6.87554 1.64902 6.55561 1.35645 6.15913 1.35645H2.57847C2.18335 1.35645 1.86206 1.64902 1.86206 2.00996V7.0248ZM12.2185 6.55176C12.3566 6.67207 12.4427 6.8457 12.4427 7.03848C12.4427 7.23262 12.3566 7.40488 12.2185 7.5252L9.95718 9.48574C9.83686 9.58965 9.6769 9.65391 9.50327 9.65391C9.12866 9.65391 8.82515 9.35996 8.82515 8.99902C8.82515 8.80625 8.91265 8.63262 9.05073 8.51367L9.99819 7.69199H5.88296C5.50835 7.69199 5.20483 7.39941 5.20483 7.03848C5.20483 6.67754 5.50835 6.38496 5.88296 6.38496H9.99546L9.048 5.56328C8.90991 5.44434 8.82241 5.26934 8.82241 5.07656C8.82241 4.71562 9.1273 4.42305 9.50054 4.42305C9.67554 4.42305 9.83413 4.48594 9.95444 4.59121L12.2185 6.55176Z" fill="rgba(71, 124, 252, 1)"/>
</svg>
