<svg width="16" height="16" viewBox="0 0 16 16" fill="none" xmlns="http://www.w3.org/2000/svg">
<path d="M6.61139 8.00578C6.3043 7.59606 5.79242 7.18635 5.38286 6.87909C4.05188 5.75239 2.82367 4.62572 2.61874 1.34813H2.20933C1.90225 1.34813 1.59514 1.04104 1.59514 0.733636C1.59514 0.426388 1.90223 0.119141 2.20933 0.119141H13.5727C13.8798 0.119141 14.1869 0.426388 14.1869 0.733636C14.1869 1.04104 13.8798 1.34813 13.5727 1.34813H13.1633C13.061 4.62572 11.7301 5.65009 10.3991 6.87909C9.98974 7.18633 9.58018 7.59606 9.17077 8.00578C9.58018 8.4155 9.98974 8.82506 10.3991 9.13247C11.7301 10.2592 13.061 11.3858 13.1633 14.6634H13.5727C13.8798 14.6634 14.1869 14.9707 14.1869 15.2779C14.1869 15.5853 13.8798 15.8926 13.5727 15.8926H2.20933C1.90225 15.8926 1.59514 15.5853 1.59514 15.2779C1.59514 14.9707 1.90223 14.6634 2.20933 14.6634H2.61874C2.72105 11.3858 4.05188 10.3616 5.38288 9.13247C5.79242 8.82505 6.3043 8.41548 6.61139 8.00578ZM3.84725 14.6634H4.35912L7.63514 11.3858C7.73746 11.2835 8.04455 11.2835 8.14686 11.3858L11.423 14.6634H11.9348C11.8324 11.8979 10.7062 11.0784 9.58018 10.0544C9.0683 9.54219 8.45396 9.13247 7.94225 8.4155C7.32806 9.13247 6.81603 9.54219 6.20184 10.0544C5.07577 11.0784 3.94956 11.8979 3.84725 14.6634ZM4.871 4.5234H11.1158C11.6277 3.80627 12.0372 2.88453 12.0372 1.34813H3.84725C3.94956 2.88453 4.25681 3.80627 4.871 4.5234Z" fill="currentColor"/>
</svg>
