<svg width="8" height="8" viewBox="0 0 8 8" fill="none" xmlns="http://www.w3.org/2000/svg">
<path d="M7.29391 4.99572L4.48495 7.04715C4.44314 7.08985 4.39159 7.12407 4.33375 7.14752C4.27591 7.17097 4.21312 7.1831 4.14959 7.1831C4.08607 7.1831 4.02328 7.17097 3.96544 7.14752C3.9076 7.12407 3.85604 7.08985 3.81423 7.04715L0.979034 4.99572C0.889488 4.90494 0.840088 4.78812 0.840088 4.66715C0.840088 4.54618 0.889488 4.42936 0.979034 4.33858C1.07183 4.24829 1.19343 4.16258 1.31503 4.16258C1.43663 4.16258 1.52175 4.21058 1.65423 4.30315L3.67471 5.74372V1.60715C3.67471 1.35001 3.88719 1.14258 4.14959 1.14258C4.41199 1.14258 4.62447 1.35001 4.62447 1.60715V5.77058L6.57135 4.27972C6.82287 4.09229 7.07823 4.11743 7.26383 4.29858C7.44943 4.48029 7.47887 4.81458 7.29391 4.99572Z" fill="currentColor" stroke="currentColor" stroke-width="0.5"/>
</svg>
