<svg width="12" height="12" viewBox="0 0 12 12" fill="none" xmlns="http://www.w3.org/2000/svg">
<path d="M11.7006 2.2128L9.82041 0.303932C9.42125 -0.101311 8.77077 -0.101311 8.37161 0.303932L3.10323 5.65258C3.03469 5.72217 2.98093 5.8054 2.94733 5.89545C2.92986 5.92956 2.91508 5.96504 2.90433 6.00324L2.08853 8.86723C1.99177 9.20834 2.08181 9.57401 2.32642 9.82098C2.57102 10.0679 2.92986 10.1607 3.26585 10.0625L6.08685 9.23427C6.11777 9.22472 6.14733 9.2138 6.17556 9.19879C6.26963 9.16331 6.35699 9.10737 6.43226 9.03096L11.7006 3.68231C12.0998 3.27844 12.0998 2.61804 11.7006 2.2128ZM10.866 2.94824L10.0059 3.82149L8.23452 2.0245L9.09467 1.15126L10.866 2.94824ZM3.22285 8.91089L3.68921 7.27082L4.8383 8.43743L3.22285 8.91089ZM4.15825 6.16425L7.45636 2.81589L9.22638 4.61287L5.92827 7.96123L4.15825 6.16425Z" fill="currentColor"/>
<path d="M5.99815 12.0002C4.48081 12.0002 3.04544 11.7778 1.95817 11.3753C1.39504 11.1665 0.944813 10.9168 0.619572 10.6316C0.107518 10.1827 0 9.72701 0 9.42274C0 9.04888 0.158589 8.49628 0.91659 7.98597C1.1706 7.81542 1.51197 7.88501 1.67997 8.14289C1.84796 8.40077 1.77942 8.74734 1.52541 8.91789C1.26065 9.09664 1.10206 9.28493 1.10206 9.42274C1.10206 9.63696 1.48778 10.0108 2.33448 10.3246C3.30349 10.6835 4.60445 10.8813 5.99681 10.8813C7.38916 10.8813 8.68879 10.6835 9.65913 10.3246C10.5058 10.0108 10.8916 9.63696 10.8916 9.42274C10.8916 9.27265 10.6994 9.0598 10.3903 8.86741C9.9575 8.59861 9.32583 8.37211 8.56111 8.21247C8.26275 8.14971 8.0719 7.85362 8.13238 7.55208C8.1942 7.24917 8.48585 7.05542 8.78286 7.11682C9.67123 7.30238 10.4252 7.578 10.9655 7.91366C11.8162 8.4417 11.9936 9.02569 11.9936 9.42274C11.9936 9.72701 11.8861 10.1841 11.374 10.6316C11.0488 10.9168 10.5986 11.1665 10.0354 11.3753C8.95086 11.7778 7.5155 12.0002 5.99815 12.0002Z" fill="currentColor"/>
</svg>
