<svg width="24" height="24" viewBox="0 0 24 24" fill="none" xmlns="http://www.w3.org/2000/svg">
<path d="M23.4012 4.4256L19.6408 0.607863C18.8425 -0.202621 17.5415 -0.202621 16.7432 0.607863L6.20645 11.3052C6.06937 11.4443 5.96185 11.6108 5.89465 11.7909C5.85971 11.8591 5.83014 11.9301 5.80864 12.0065L4.17705 17.7345C3.98352 18.4167 4.16361 19.148 4.65282 19.642C5.14203 20.1359 5.85971 20.3215 6.53169 20.125L12.1737 18.4685C12.2355 18.4494 12.2947 18.4276 12.3511 18.3976C12.5393 18.3266 12.714 18.2147 12.8645 18.0619L23.4012 7.36463C24.1996 6.55687 24.1996 5.23608 23.4012 4.4256ZM21.732 5.89648L20.0117 7.64297L16.469 4.04901L18.1893 2.30251L21.732 5.89648ZM6.44568 17.8218L7.3784 14.5416L9.67659 16.8749L6.44568 17.8218ZM8.31649 12.3285L14.9127 5.63177L18.4527 9.22574L11.8565 15.9225L8.31649 12.3285Z" fill="currentColor"/>
<path d="M11.9963 24.0004C8.96161 24.0004 6.09089 23.5556 3.91634 22.7505C2.79009 22.333 1.88963 21.8336 1.23914 21.2633C0.215036 20.3655 0 19.454 0 18.8455C0 18.0978 0.317178 16.9926 1.83318 15.9719C2.3412 15.6308 3.02394 15.77 3.35993 16.2858C3.69593 16.8015 3.55884 17.4947 3.05082 17.8358C2.52129 18.1933 2.20412 18.5699 2.20412 18.8455C2.20412 19.2739 2.97556 20.0216 4.66896 20.6493C6.60697 21.367 9.2089 21.7627 11.9936 21.7627C14.7783 21.7627 17.3776 21.367 19.3183 20.6493C21.0117 20.0216 21.7831 19.2739 21.7831 18.8455C21.7831 18.5453 21.3987 18.1196 20.7805 17.7348C19.915 17.1972 18.6517 16.7442 17.1222 16.4249C16.5255 16.2994 16.1438 15.7072 16.2648 15.1042C16.3884 14.4983 16.9717 14.1108 17.5657 14.2336C19.3425 14.6048 20.8504 15.156 21.931 15.8273C23.6324 16.8834 23.9872 18.0514 23.9872 18.8455C23.9872 19.454 23.7722 20.3682 22.7481 21.2633C22.0976 21.8336 21.1971 22.333 20.0709 22.7505C17.9017 23.5556 15.031 24.0004 11.9963 24.0004Z" fill="currentColor"/>
</svg>
