<svg width="12" height="12" viewBox="0 0 12 12" fill="none" xmlns="http://www.w3.org/2000/svg">
<path d="M5.57569 0.175673C5.68821 0.0631898 5.84079 0 5.99989 0C6.15899 0 6.31157 0.0631898 6.42409 0.175673L8.82409 2.5757C8.93338 2.68886 8.99386 2.84042 8.9925 2.99774C8.99113 3.15506 8.92803 3.30555 8.81678 3.41679C8.70554 3.52804 8.55505 3.59114 8.39773 3.59251C8.24041 3.59388 8.08885 3.5334 7.97569 3.4241L6.59989 2.04829V7.79994C6.59989 7.95907 6.53668 8.11169 6.42415 8.22421C6.31163 8.33673 6.15902 8.39995 5.99989 8.39995C5.84076 8.39995 5.68815 8.33673 5.57563 8.22421C5.4631 8.11169 5.39989 7.95907 5.39989 7.79994V2.04829L4.02409 3.4241C3.91093 3.5334 3.75937 3.59388 3.60205 3.59251C3.44473 3.59114 3.29424 3.52804 3.183 3.41679C3.07175 3.30555 3.00865 3.15506 3.00729 2.99774C3.00592 2.84042 3.0664 2.68886 3.17569 2.5757L5.57569 0.175673Z" fill="currentColor"/>
<path d="M0.6 5.3999C0.75913 5.3999 0.911742 5.46312 1.02426 5.57564C1.13679 5.68816 1.2 5.84078 1.2 5.99991V8.51993C1.2 9.03414 1.2 9.38334 1.2228 9.65334C1.2438 9.91614 1.2828 10.0511 1.3308 10.1447C1.44585 10.3705 1.62942 10.5541 1.8552 10.6691C1.9488 10.7172 2.0832 10.7562 2.3466 10.7772C2.6166 10.8 2.9658 10.8 3.48 10.8H8.52C9.0342 10.8 9.3834 10.8 9.6534 10.7772C9.9162 10.7562 10.0512 10.7172 10.1448 10.6691C10.3706 10.5541 10.5542 10.3705 10.6692 10.1447C10.7172 10.0511 10.7562 9.91674 10.7772 9.65334C10.7994 9.38334 10.8 9.03414 10.8 8.51993V5.99991C10.8 5.92111 10.8155 5.84309 10.8457 5.7703C10.8758 5.6975 10.92 5.63136 10.9757 5.57564C11.0315 5.51992 11.0976 5.47573 11.1704 5.44557C11.2432 5.41542 11.3212 5.3999 11.4 5.3999C11.4788 5.3999 11.5568 5.41542 11.6296 5.44557C11.7024 5.47573 11.7685 5.51992 11.8243 5.57564C11.88 5.63136 11.9242 5.6975 11.9543 5.7703C11.9845 5.84309 12 5.92111 12 5.99991V8.54453C12 9.02754 12 9.42654 11.9736 9.75054C11.946 10.0883 11.8866 10.3985 11.7384 10.6896C11.5083 11.1411 11.1412 11.5083 10.6896 11.7384C10.3986 11.8866 10.0884 11.946 9.7512 11.9736C9.4266 12 9.0276 12 8.5452 12H3.4548C2.9718 12 2.5728 12 2.2488 11.9736C1.911 11.946 1.6008 11.8866 1.3098 11.7384C0.858231 11.5083 0.491093 11.1411 0.261 10.6896C0.1128 10.3985 0.0533999 10.0883 0.0258 9.75114C-5.02914e-08 9.42594 0 9.02754 0 8.54513V5.99991C0 5.84078 0.063214 5.68816 0.175736 5.57564C0.288258 5.46312 0.44087 5.3999 0.6 5.3999Z" fill="currentColor"/>
</svg>
