<svg width="16" height="16" viewBox="0 0 16 16" fill="none" xmlns="http://www.w3.org/2000/svg">
<g clip-path="url(#clip0_359_19110)">
<path d="M8 16C3.582 16 0 12.418 0 8C0 3.582 3.582 0 8 0C12.418 0 16 3.582 16 8C16 12.418 12.418 16 8 16ZM6.216 11.1413C6.29339 11.2187 6.38526 11.2801 6.48638 11.322C6.5875 11.3639 6.69588 11.3855 6.80533 11.3855C6.91479 11.3855 7.02317 11.3639 7.12429 11.322C7.22541 11.2801 7.31728 11.2187 7.39467 11.1413L12.4467 6.08933C12.5241 6.01194 12.5855 5.92006 12.6273 5.81894C12.6692 5.71783 12.6908 5.60945 12.6908 5.5C12.6908 5.39055 12.6692 5.28217 12.6273 5.18106C12.5855 5.07994 12.5241 4.98806 12.4467 4.91067C12.3693 4.83327 12.2774 4.77188 12.1763 4.73C12.0752 4.68811 11.9668 4.66656 11.8573 4.66656C11.7479 4.66656 11.6395 4.68811 11.5384 4.73C11.4373 4.77188 11.3454 4.83327 11.268 4.91067L6.76933 9.33733L4.756 7.324C4.5997 7.1677 4.38771 7.07989 4.16667 7.07989C3.94562 7.07989 3.73363 7.1677 3.57733 7.324C3.42103 7.4803 3.33322 7.69229 3.33322 7.91333C3.33322 8.02278 3.35478 8.13116 3.39667 8.23228C3.43855 8.3334 3.49994 8.42527 3.57733 8.50267L6.216 11.1413Z" fill="white" fill-opacity="0.6"/>
</g>
<defs>
<clipPath id="clip0_359_19110">
<rect width="16" height="16" fill="white"/>
</clipPath>
</defs>
</svg>
