<svg width="14" height="14" viewBox="0 0 14 14" fill="none" xmlns="http://www.w3.org/2000/svg">
<path d="M6.99995 5.17749C5.99644 5.17749 5.17749 5.99644 5.17749 6.99995C5.17749 8.00347 5.99644 8.82241 6.99995 8.82241C8.00347 8.82241 8.82241 8.00347 8.82241 6.99995C8.82241 5.99644 8.00347 5.17749 6.99995 5.17749Z" fill="currentColor"/>
<path d="M12.466 6.99997C12.466 6.24528 12.4728 5.49743 12.4304 4.74411C12.388 3.86911 12.1884 3.09255 11.5486 2.4527C10.9074 1.81149 10.1322 1.61325 9.25717 1.57087C8.50248 1.52848 7.75463 1.53532 7.00131 1.53532C6.24662 1.53532 5.49877 1.52848 4.74545 1.57087C3.87045 1.61325 3.09389 1.81286 2.45404 2.4527C1.81283 3.09391 1.61459 3.86911 1.57221 4.74411C1.52983 5.4988 1.53666 6.24665 1.53666 6.99997C1.53666 7.75329 1.52983 8.50251 1.57221 9.25583C1.61459 10.1308 1.8142 10.9074 2.45404 11.5472C3.09526 12.1884 3.87045 12.3867 4.74545 12.4291C5.50014 12.4715 6.24799 12.4646 7.00131 12.4646C7.756 12.4646 8.50385 12.4715 9.25717 12.4291C10.1322 12.3867 10.9087 12.1871 11.5486 11.5472C12.1898 10.906 12.388 10.1308 12.4304 9.25583C12.4742 8.50251 12.466 7.75465 12.466 6.99997ZM6.99994 9.80407C5.44818 9.80407 4.19584 8.55172 4.19584 6.99997C4.19584 5.44821 5.44818 4.19587 6.99994 4.19587C8.5517 4.19587 9.80404 5.44821 9.80404 6.99997C9.80404 8.55172 8.5517 9.80407 6.99994 9.80407ZM9.91889 4.7359C9.55658 4.7359 9.26401 4.44333 9.26401 4.08102C9.26401 3.71872 9.55658 3.42614 9.91889 3.42614C10.2812 3.42614 10.5738 3.71872 10.5738 4.08102C10.5724 4.44469 10.2812 4.7359 9.91889 4.7359Z" fill="currentColor"/>
</svg>
