<svg width="13" height="14" viewBox="0 0 13 14" fill="none" xmlns="http://www.w3.org/2000/svg">
<path d="M6.38795 0.0116665C7.1521 0 7.91043 0.00583326 8.66875 0C8.71542 0.892489 9.03625 1.80248 9.68957 2.43247C10.3429 3.07996 11.2646 3.37746 12.1629 3.47662V5.82743C11.3229 5.79826 10.4771 5.62326 9.7129 5.2616C9.38041 5.10994 9.07125 4.91744 8.76792 4.71911C8.76208 6.42242 8.77375 8.12573 8.75625 9.82321C8.70958 10.6399 8.44125 11.4507 7.96876 12.1215C7.2046 13.2415 5.88045 13.9707 4.5213 13.994C3.68715 14.0407 2.85299 13.8132 2.14133 13.3932C0.963014 12.699 0.134691 11.4274 0.0121926 10.0624C0.000526029 9.77071 -0.0053073 9.47905 0.00635923 9.19322C0.111358 8.0849 0.659684 7.02325 1.51134 6.29992C2.47966 5.45993 3.83298 5.05744 5.0988 5.2966C5.11046 6.15992 5.07546 7.02325 5.07546 7.88657C4.49797 7.6999 3.82131 7.7524 3.31382 8.1024C2.94632 8.34156 2.66633 8.70906 2.52049 9.12322C2.398 9.42072 2.433 9.74738 2.43883 10.0624C2.57883 11.019 3.50048 11.824 4.48047 11.7365C5.1338 11.7307 5.75795 11.3515 6.09628 10.7974C6.20712 10.6049 6.32961 10.4065 6.33545 10.179C6.39378 9.13489 6.37045 8.09657 6.37628 7.05241C6.38211 4.70161 6.37045 2.35664 6.38795 0.0116665Z" fill="currentColor"/>
</svg>
