<svg width="14" height="11" viewBox="0 0 14 11" fill="none" xmlns="http://www.w3.org/2000/svg">
<g clip-path="url(#clip0_593_10061)">
<path d="M11.8593 0.9174C10.9531 0.488825 9.98409 0.177354 8.97102 0C8.84661 0.227362 8.70125 0.533168 8.60104 0.776436C7.52412 0.612738 6.45712 0.612738 5.40001 0.776436C5.29981 0.533168 5.15116 0.227362 5.02563 0C4.01147 0.177354 3.04136 0.489969 2.13511 0.91967C0.307208 3.71162 -0.188307 6.43422 0.0594514 9.11816C1.27181 10.0333 2.44674 10.5892 3.60184 10.9529C3.88704 10.5562 4.14139 10.1344 4.36052 9.68996C3.94319 9.52968 3.54347 9.33188 3.16579 9.10225C3.26599 9.02722 3.364 8.94877 3.45869 8.86806C5.76228 9.95711 8.26519 9.95711 10.5413 8.86806C10.6371 8.94877 10.7351 9.02722 10.8342 9.10225C10.4554 9.33301 10.0546 9.53081 9.63723 9.69111C9.85635 10.1344 10.1096 10.5573 10.3959 10.9541C11.5521 10.5903 12.7281 10.0344 13.9405 9.11816C14.2312 6.00678 13.4439 3.30919 11.8593 0.9174ZM4.67435 7.46756C3.98284 7.46756 3.41574 6.81503 3.41574 6.02042C3.41574 5.22581 3.97073 4.57216 4.67435 4.57216C5.378 4.57216 5.94508 5.22467 5.93297 6.02042C5.93406 6.81503 5.378 7.46756 4.67435 7.46756ZM9.3256 7.46756C8.63408 7.46756 8.06699 6.81503 8.06699 6.02042C8.06699 5.22581 8.62195 4.57216 9.3256 4.57216C10.0292 4.57216 10.5963 5.22467 10.5842 6.02042C10.5842 6.81503 10.0292 7.46756 9.3256 7.46756Z" fill="currentColor"/>
</g>
<defs>
<clipPath id="clip0_593_10061">
<rect width="14" height="11" fill="currentColor"/>
</clipPath>
</defs>
</svg>
