<svg width="14" height="14" viewBox="0 0 14 14" fill="none" xmlns="http://www.w3.org/2000/svg">
<g clip-path="url(#clip0_593_10000)">
<path d="M7.26523 0.724609C9.10033 0.724609 10.5446 1.26824 11.5981 2.37249C12.4987 3.32385 12.9574 4.49605 12.9574 5.88912C12.9574 7.0783 12.5666 8.18256 11.819 9.20187C11.0544 10.2042 10.1878 10.7138 9.20228 10.7138C8.48863 10.7138 8.08083 10.3571 7.96188 9.66056C7.46912 10.3741 6.80645 10.7308 5.99085 10.7308C5.22622 10.7308 4.61453 10.476 4.13876 9.96636C3.66298 9.4567 3.42511 8.81114 3.42511 8.04665C3.42511 6.85747 3.78194 5.82116 4.52956 4.90379C5.26021 3.96941 6.14377 3.51072 7.16328 3.51072C7.89391 3.51072 8.40366 3.90146 8.70952 4.68293L8.94741 3.8335H10.4597L9.30423 7.9787C9.13432 8.59029 9.04936 8.96403 9.04936 9.11693C9.04936 9.33778 9.1683 9.4567 9.42318 9.4567C9.89894 9.4567 10.3747 9.13391 10.8505 8.52234C11.3942 7.80882 11.6661 6.92541 11.6661 5.9061C11.6661 4.85282 11.2923 3.95243 10.5446 3.22191C9.71204 2.40647 8.59057 2.01574 7.16328 2.01574C5.63403 2.01574 4.42762 2.49141 3.51006 3.45976C2.59252 4.41112 2.15074 5.65127 2.15074 7.16326C2.15074 8.82812 2.6265 10.1023 3.59503 10.9517C4.47859 11.7332 5.75297 12.1239 7.40116 12.1239C8.50561 12.1239 9.44016 11.937 10.2218 11.5972C10.9354 11.2575 11.4962 10.7988 11.9379 10.1872H13.5352C12.9404 11.2575 12.0569 12.0729 10.9014 12.6166C9.84796 13.0922 8.69252 13.3301 7.40116 13.3301C5.22624 13.3301 3.52706 12.7695 2.32065 11.6482C1.11424 10.527 0.519531 8.99801 0.519531 7.09529C0.519531 5.32849 1.09725 3.85049 2.26967 2.6613C3.52707 1.37017 5.19224 0.724609 7.26523 0.724609ZM7.4719 4.99023C6.82519 4.99023 6.26358 5.31344 5.78705 5.95983C5.31053 6.60622 5.07227 7.32065 5.07227 8.12014C5.07227 8.52838 5.15736 8.83457 5.32755 9.0387C5.49773 9.25984 5.75302 9.37891 6.12742 9.37891C6.45077 9.37891 6.77413 9.25982 7.08046 9.02169C7.42083 8.74952 7.65909 8.3923 7.79525 7.96704L8.13561 6.74231C8.27177 6.249 8.33984 5.94279 8.33984 5.84073C8.33984 5.58559 8.23773 5.38145 8.06754 5.22837C7.89735 5.05828 7.69314 4.99023 7.4719 4.99023Z" fill="currentColor"/>
</g>
<defs>
<clipPath id="clip0_593_10000">
<rect width="14" height="14" fill="currentColor"/>
</clipPath>
</defs>
</svg>
