<svg width="14" height="14" viewBox="0 0 14 14" fill="none" xmlns="http://www.w3.org/2000/svg">
<path d="M10.8761 14H3.1232C1.39624 14 0 12.6756 0 11.0431V5.25264C0 4.26703 0.514399 3.34302 1.35951 2.8194L4.96039 0.509362C5.95246 -0.137449 7.31197 -0.168245 8.34078 0.41696L12.4928 2.78861C13.4114 3.31221 13.9993 4.29783 13.9993 5.31425V11.0431C14.036 12.6756 12.603 14 10.8761 14ZM6.72408 0.940575C6.35663 0.940575 5.95246 1.03298 5.62177 1.24858L2.02089 3.55862C1.433 3.92822 1.06555 4.57503 1.06555 5.28345V11.0739C1.06555 12.1828 1.98415 13.1068 3.08646 13.1068H10.8394C11.9417 13.1068 12.8602 12.1828 12.8602 11.0739V5.34504C12.8602 4.60583 12.4561 3.92822 11.8314 3.58941L7.71615 1.18697C7.4222 1.03298 7.05477 0.940575 6.72408 0.940575Z" fill="currentColor"/>
</svg>
