<svg width="16" height="16" viewBox="0 0 16 16" fill="none" xmlns="http://www.w3.org/2000/svg">
<path d="M8 16C3.58906 16 0 12.4116 0 8C0 3.58911 3.58906 0 8 0C12.4115 0 16 3.58847 16 8C16 12.4116 12.4115 16 8 16ZM8 1.14794C4.22158 1.14794 1.14792 4.22158 1.14792 8.00002C1.14792 11.7779 4.22158 14.8521 7.99998 14.8521C11.7779 14.8521 14.8521 11.7784 14.8521 8.00002C14.8521 4.22158 11.7779 1.14794 7.99998 1.14794H8ZM7.13906 4.26922C7.13906 4.0438 7.23183 3.81978 7.39122 3.66045C7.55062 3.50108 7.77456 3.40822 7.99998 3.40822C8.22544 3.40822 8.44936 3.50106 8.60878 3.66045C8.76816 3.81978 8.86092 4.0438 8.86092 4.26922C8.86092 4.49458 8.76817 4.71859 8.60878 4.87802C8.44937 5.03739 8.22544 5.13016 7.99998 5.13016C7.77456 5.13016 7.55062 5.03741 7.39123 4.87802C7.23183 4.71859 7.13908 4.49458 7.13908 4.26922H7.13906ZM8 12.5918C7.68313 12.5918 7.426 12.3352 7.426 12.0178V6.85209C7.426 6.53522 7.68314 6.27808 7.99998 6.27808C8.31686 6.27808 8.574 6.53522 8.574 6.85209V12.0178C8.574 12.3352 8.31686 12.5918 7.99998 12.5918H8Z" fill="currentColor"/>
</svg>
