<svg viewBox="0 0 24 24" fill="none" xmlns="http://www.w3.org/2000/svg">
<path d="M1.43262 16.0721C1.43262 14.9697 1.61866 13.974 1.99074 13.0852C2.36971 12.1894 2.87959 11.4832 3.5204 10.9664C4.16809 10.4496 4.89502 10.1912 5.70119 10.1912H7.1275C6.79676 10.6184 6.48325 11.1145 6.18696 11.6795C5.89757 12.2445 5.65985 12.8854 5.47381 13.602C5.29466 14.3117 5.20509 15.1006 5.20509 15.9688C5.1982 17.1746 5.40835 18.2908 5.83556 19.3175C6.26965 20.3373 6.95524 21.2089 7.89233 21.9324H6.09395C5.20509 21.9324 4.40925 21.6671 3.70644 21.1366C3.00362 20.606 2.44895 19.8997 2.04241 19.0178C1.63588 18.1289 1.43262 17.147 1.43262 16.0721ZM6.71408 15.9895C6.71408 15.1626 6.78643 14.4219 6.93112 13.7673C7.07582 13.1058 7.29976 12.4823 7.60293 11.8966C7.90611 11.304 8.28852 10.7011 8.75018 10.0879C9.54946 9.02675 10.4314 7.86573 11.3961 6.60479C12.3607 5.34385 13.2358 3.952 14.0213 2.42923C14.2418 2.00203 14.4692 1.66785 14.7034 1.42669C14.9377 1.18552 15.2512 1.06494 15.644 1.06494C16.085 1.06494 16.4536 1.20964 16.7499 1.49903C17.0462 1.78843 17.1943 2.19152 17.1943 2.70829C17.1943 3.17684 17.1013 3.68328 16.9153 4.22762C16.7361 4.76506 16.5294 5.30251 16.2951 5.83996C16.0608 6.37741 15.8541 6.88385 15.675 7.35928C15.5027 7.83472 15.4166 8.24814 15.4166 8.59955C15.4166 8.96474 15.551 9.25413 15.8197 9.46774C16.0953 9.68134 16.457 9.78814 16.9049 9.78814H20.636C21.0012 9.78814 21.3285 9.87427 21.6179 10.0465C21.9073 10.2188 22.1381 10.4531 22.3104 10.7493C22.4827 11.0456 22.5688 11.3729 22.5688 11.7312C22.5688 12.0275 22.5206 12.2962 22.4241 12.5374C22.3276 12.7717 22.1967 12.9646 22.0313 13.1162C21.8935 13.2402 21.8832 13.3573 22.0003 13.4676C22.1313 13.6054 22.2346 13.7949 22.3104 14.036C22.3931 14.2703 22.4344 14.5149 22.4344 14.7699C22.4344 15.1213 22.3586 15.4382 22.2071 15.7207C22.0555 16.0032 21.8591 16.2237 21.6179 16.3822C21.4594 16.4718 21.4319 16.5889 21.5352 16.7336C21.7764 17.0575 21.897 17.4571 21.897 17.9325C21.897 18.346 21.7798 18.7077 21.5456 19.0178C21.3182 19.3209 21.0391 19.5483 20.7084 19.6999C20.5913 19.7482 20.5706 19.8377 20.6464 19.9686C20.7084 20.0789 20.7601 20.2098 20.8014 20.3614C20.8496 20.513 20.8738 20.6887 20.8738 20.8885C20.8738 21.3984 20.7015 21.798 20.357 22.0874C20.0194 22.3768 19.6266 22.5766 19.1787 22.6869C18.8893 22.7627 18.4897 22.8213 17.9798 22.8626C17.4699 22.9108 16.8774 22.9349 16.2021 22.9349H14.7551C13.5218 22.9349 12.409 22.7592 11.4167 22.4078C10.4245 22.0564 9.57702 21.5672 8.87421 20.9402C8.17139 20.3132 7.63394 19.5793 7.26186 18.7387C6.88978 17.8912 6.70719 16.9748 6.71408 15.9895Z" fill="currentColor"/>
</svg>