<svg width="12" height="12" viewBox="0 0 12 12" fill="none" xmlns="http://www.w3.org/2000/svg">
<path d="M10.2705 4.02857H8.302C8.302 4.02857 8.55876 3.17143 8.72994 1.62857C8.81553 0.857143 8.21641 0.0857143 7.36054 0H7.18936C6.50466 0 6.07672 0.428571 5.81996 1.02857L5.30643 2.31429C4.87849 3.17143 4.53614 3.68571 4.27938 3.85714C3.93703 4.02857 2.65322 4.02857 2.56763 4.02857H0.855876C0.34235 4.02857 0 4.37143 0 4.8V11.2286C0 11.6571 0.34235 12 0.855876 12H9.50023C10.784 12 11.1264 11.1429 11.2976 9.94286L11.9823 5.82857C12.0679 4.88571 11.8967 4.02857 10.2705 4.02857ZM2.56763 11.2286H0.855876V4.8H2.56763V11.2286ZM11.1264 5.74286L10.4417 9.85714C10.2705 10.6286 10.2705 11.2286 9.41464 11.2286H3.42351V4.8C4.02262 4.8 4.36497 4.71429 4.62173 4.54286C5.04967 4.37143 5.47761 3.68571 6.07672 2.57143C6.41907 1.71429 6.59025 1.28571 6.67584 1.2C6.76142 0.942857 6.9326 0.771429 7.27495 0.771429H7.36054C7.78847 0.771429 7.95965 1.2 7.95965 1.45714C7.78847 2.82857 7.53171 3.68571 7.53171 3.68571L7.18936 4.8H10.4417C10.6985 4.8 10.8696 4.8 11.0408 4.97143C11.212 5.14286 11.1264 5.48571 11.1264 5.74286Z" fill="currentColor"/>
</svg>
