<svg width="14" height="14" viewBox="0 0 14 14" fill="none" xmlns="http://www.w3.org/2000/svg">
<g opacity="0.4">
<path d="M11.8439 12.4039H6.31391L5.75391 11.8439V9.08591H6.87391V11.2839H11.2839V6.87391H9.08591V5.75391H11.8439L12.4039 6.31391V11.8439L11.8439 12.4039Z" fill="white"/>
<path d="M4.57178 5.16601L5.16594 4.57227L5.75954 5.16587L5.16594 5.76003L4.57178 5.16601ZM5.9449 6.53549L6.53878 5.94147L7.1328 6.53549L6.53878 7.12951L5.9449 6.53549ZM7.31788 7.90497L7.9119 7.31095L8.50578 7.90497L7.9119 8.49885L7.31788 7.90497Z" fill="white"/>
<path d="M4.91419 8.2457H2.15619L1.59619 7.6857V2.1557L2.15619 1.5957H7.68619L8.24619 2.1557V4.9137H7.12619V2.7157H2.71619V7.1257H4.91419V8.2457Z" fill="white"/>
</g>
</svg>
