<svg width="16" height="16" viewBox="0 0 16 16" fill="none" xmlns="http://www.w3.org/2000/svg">
<path d="M8.932 0.722058C9.06412 0.779431 9.17411 0.878051 9.24549 1.00316C9.31688 1.12826 9.34582 1.27312 9.328 1.41606L8.75467 6.00006H12.8853C13.0453 6.00006 13.2087 6.00006 13.3413 6.01206C13.4673 6.02339 13.708 6.05339 13.9167 6.22206C14.0347 6.31745 14.1295 6.43845 14.1938 6.5759C14.2582 6.71336 14.2904 6.86365 14.288 7.01539C14.284 7.28339 14.1533 7.48806 14.0813 7.59139C14.0053 7.70139 13.9013 7.82673 13.7987 7.95006L7.84533 15.0934C7.75305 15.2039 7.62748 15.2816 7.48738 15.3148C7.34729 15.348 7.20021 15.335 7.06814 15.2776C6.93607 15.2203 6.8261 15.1218 6.7547 14.9967C6.68329 14.8717 6.65428 14.7269 6.672 14.5841L7.24533 10.0001H3.114C2.954 10.0001 2.79067 10.0001 2.658 9.98806C2.532 9.97672 2.29133 9.94672 2.08267 9.77806C1.96463 9.68267 1.86985 9.56166 1.80552 9.42421C1.74118 9.28676 1.70897 9.13647 1.71133 8.98472C1.71533 8.71673 1.846 8.51206 1.918 8.40873C1.994 8.29873 2.098 8.17339 2.20067 8.05006L2.216 8.03206L8.15467 0.906724C8.2469 0.796107 8.37248 0.718333 8.51261 0.685044C8.65273 0.651755 8.79987 0.664741 8.932 0.722058ZM3.42333 8.66673H8C8.09451 8.66675 8.18794 8.68687 8.27408 8.72576C8.36022 8.76464 8.43711 8.82139 8.49965 8.89225C8.56219 8.96311 8.60895 9.04646 8.63682 9.13677C8.6647 9.22707 8.67305 9.32228 8.66133 9.41606L8.27667 12.4934L12.5767 7.33339H8C7.90549 7.33337 7.81206 7.31324 7.72592 7.27436C7.63978 7.23548 7.56289 7.17873 7.50035 7.10787C7.43781 7.037 7.39105 6.95366 7.36318 6.86335C7.3353 6.77304 7.32695 6.67784 7.33867 6.58406L7.72333 3.50739L3.42333 8.66673Z" fill="currentColor"/>
</svg>
