<svg width="16" height="16" viewBox="0 0 16 16" fill="none" xmlns="http://www.w3.org/2000/svg">
<path d="M12.5 6.00002H12.125C12.0562 6.00002 12 5.94377 12 5.87502V4.03127C12 1.82346 10.1937 -0.00778758 7.98437 2.49051e-05C5.78281 0.00783739 4 1.79533 4 4.00002V5.87502C4 5.94377 3.94375 6.00002 3.875 6.00002H3.50001C2.67188 6.00002 2.00001 6.67189 2.00001 7.50001V14.5C2.00001 15.3281 2.67188 16 3.50001 16H12.5C13.3281 16 14 15.3281 14 14.5V7.50001C14 6.67189 13.3281 6.00002 12.5 6.00002ZM8.90156 11.6984C8.65156 11.8875 8.5 12.1781 8.5 12.4922V13.5C8.5 13.7734 8.27812 13.9969 8.00625 14C7.72812 14.0031 7.5 13.7688 7.5 13.4891V12.5C7.5 12.1844 7.35 11.8891 7.09687 11.6984C6.73438 11.425 6.5 10.9891 6.5 10.5C6.5 9.68439 7.1625 9.01095 7.97812 9.00001C8.81718 8.98751 9.49999 9.66407 9.49999 10.5C9.49999 10.9891 9.26562 11.425 8.90156 11.6984ZM11 5.87502C11 5.94377 10.9437 6.00002 10.875 6.00002H5.125C5.05625 6.00002 5 5.94377 5 5.87502V4.00002C5 3.19846 5.3125 2.44533 5.87813 1.87815C6.44531 1.31252 7.19844 1.00002 8 1.00002C8.80156 1.00002 9.55468 1.31252 10.1219 1.87815C10.6875 2.44533 11 3.19846 11 4.00002V5.87502Z" fill="currentColor"/>
<path d="M7.5 10.5C7.5 10.6326 7.55268 10.7598 7.64645 10.8536C7.74021 10.9473 7.86739 11 8 11C8.13261 11 8.25978 10.9473 8.35355 10.8536C8.44732 10.7598 8.5 10.6326 8.5 10.5C8.5 10.3674 8.44732 10.2402 8.35355 10.1464C8.25978 10.0527 8.13261 10 8 10C7.86739 10 7.74021 10.0527 7.64645 10.1464C7.55268 10.2402 7.5 10.3674 7.5 10.5Z" fill="currentColor"/>
</svg>
