<svg width="16" height="16" viewBox="0 0 16 16" fill="none" xmlns="http://www.w3.org/2000/svg">
<path d="M15.7658 7.43433C15.9157 7.58436 16 7.7878 16 7.99994C16 8.21207 15.9157 8.41551 15.7658 8.56554L12.5657 11.7655C12.4149 11.9113 12.2128 11.9919 12.003 11.9901C11.7933 11.9883 11.5926 11.9041 11.4443 11.7558C11.2959 11.6075 11.2118 11.4068 11.21 11.1971C11.2082 10.9873 11.2888 10.7852 11.4345 10.6343L13.2689 8.79994H5.60008C5.3879 8.79994 5.18442 8.71565 5.03439 8.56562C4.88436 8.41559 4.80007 8.21211 4.80007 7.99994C4.80007 7.78776 4.88436 7.58428 5.03439 7.43425C5.18442 7.28422 5.3879 7.19994 5.60008 7.19994H13.2689L11.4345 5.36553C11.2888 5.21465 11.2082 5.01257 11.21 4.80281C11.2118 4.59306 11.2959 4.39241 11.4443 4.24408C11.5926 4.09575 11.7933 4.01162 12.003 4.0098C12.2128 4.00797 12.4149 4.08861 12.5657 4.23434L15.7658 7.43433Z" fill="currentColor"/>
<path d="M8.80005 0.8C8.80005 1.01217 8.71576 1.21566 8.56573 1.36569C8.4157 1.51571 8.21222 1.6 8.00004 1.6H4.64001C3.9544 1.6 3.4888 1.6 3.1288 1.6304C2.77839 1.6584 2.59839 1.7104 2.47359 1.7744C2.17254 1.92779 1.92778 2.17255 1.77439 2.4736C1.71038 2.5984 1.65838 2.7776 1.63038 3.1288C1.59998 3.4888 1.59998 3.9544 1.59998 4.64V11.36C1.59998 12.0456 1.59998 12.5112 1.63038 12.8712C1.65838 13.2216 1.71038 13.4016 1.77439 13.5264C1.92778 13.8274 2.17254 14.0722 2.47359 14.2256C2.59839 14.2896 2.77759 14.3416 3.1288 14.3696C3.4888 14.3992 3.9544 14.4 4.64001 14.4H8.00004C8.1051 14.4 8.20913 14.4207 8.30619 14.4609C8.40325 14.5011 8.49144 14.56 8.56573 14.6343C8.64002 14.7086 8.69895 14.7968 8.73915 14.8939C8.77936 14.9909 8.80005 15.0949 8.80005 15.2C8.80005 15.3051 8.77936 15.4091 8.73915 15.5061C8.69895 15.6032 8.64002 15.6914 8.56573 15.7657C8.49144 15.84 8.40325 15.8989 8.30619 15.9391C8.20913 15.9793 8.1051 16 8.00004 16H4.60721C3.9632 16 3.4312 16 2.9992 15.9648C2.54879 15.928 2.13519 15.8488 1.74719 15.6512C1.14509 15.3444 0.655564 14.8549 0.348772 14.2528C0.15117 13.8648 0.07197 13.4512 0.0351696 13.0016C-3.05176e-05 12.5688 -3.14713e-05 12.0368 -3.14713e-05 11.3936V4.6064C-3.14713e-05 3.9624 -3.05176e-05 3.4304 0.0351696 2.9984C0.07197 2.548 0.15117 2.1344 0.348772 1.7464C0.655564 1.14431 1.14509 0.65479 1.74719 0.348C2.13519 0.1504 2.54879 0.0711999 2.9984 0.0343999C3.432 -6.70552e-08 3.9632 0 4.60641 0H8.00004C8.21222 0 8.4157 0.0842854 8.56573 0.234314C8.71576 0.384344 8.80005 0.587827 8.80005 0.8Z" fill="currentColor"/>
</svg>
