<svg viewBox="0 0 16 16" fill="none" xmlns="http://www.w3.org/2000/svg" class="!size-4 cursor-pointer fill-current">
<path d="M7.99653 14.5537C7.06464 14.5537 6.20134 14.3881 5.40663 14.0568C4.61192 13.7302 3.91655 13.2712 3.32051 12.6796C2.72921 12.088 2.268 11.3947 1.93687 10.5996C1.60574 9.79973 1.44017 8.93365 1.44017 8.0013C1.44017 7.06896 1.60574 6.20524 1.93687 5.41014C2.268 4.61032 2.72921 3.91461 3.32051 3.32302C3.91655 2.7267 4.61192 2.26526 5.40663 1.9387C6.20134 1.60741 7.06464 1.44177 7.99653 1.44177V14.5537ZM7.99653 15.3346C6.98422 15.3346 6.03577 15.143 5.15119 14.7596C4.2666 14.381 3.48844 13.8557 2.81672 13.1836C2.145 12.5163 1.61756 11.7401 1.2344 10.8551C0.855965 9.96538 0.666748 9.0141 0.666748 8.0013C0.666748 6.9885 0.855965 6.03959 1.2344 5.15458C1.61756 4.26483 2.145 3.48393 2.81672 2.81189C3.48844 2.13984 4.2666 1.61451 5.15119 1.23589C6.03577 0.857277 6.98422 0.667969 7.99653 0.667969C9.00884 0.667969 9.95729 0.857277 10.8419 1.23589C11.7312 1.61451 12.5117 2.13984 13.1834 2.81189C13.8552 3.48393 14.3802 4.26483 14.7587 5.15458C15.1418 6.03959 15.3334 6.9885 15.3334 8.0013C15.3334 9.0141 15.1418 9.96538 14.7587 10.8551C14.3802 11.7401 13.8552 12.5163 13.1834 13.1836C12.5117 13.8557 11.7312 14.381 10.8419 14.7596C9.95729 15.143 9.00884 15.3346 7.99653 15.3346ZM7.99653 13.8864C8.81017 13.8864 9.57176 13.7326 10.2813 13.425C10.9909 13.1221 11.6153 12.7009 12.1546 12.1614C12.6986 11.6218 13.1219 10.9971 13.4247 10.2872C13.7274 9.57729 13.8788 8.81533 13.8788 8.0013C13.8788 7.18728 13.7274 6.42531 13.4247 5.7154C13.1219 5.00076 12.6986 4.37605 12.1546 3.84125C11.6153 3.30172 10.9909 2.88051 10.2813 2.57762C9.57176 2.26999 8.81017 2.11618 7.99653 2.11618C7.18763 2.11618 6.42603 2.26999 5.71174 2.57762C5.00218 2.88051 4.37776 3.30172 3.83849 3.84125C3.29923 4.37605 2.87585 5.00076 2.56838 5.7154C2.26563 6.42531 2.11426 7.18728 2.11426 8.0013C2.11426 8.81533 2.26563 9.57729 2.56838 10.2872C2.87585 10.9971 3.29923 11.6218 3.83849 12.1614C4.37776 12.7009 5.00218 13.1221 5.71174 13.425C6.42603 13.7326 7.18763 13.8864 7.99653 13.8864Z" fill="currentColor"/>
</svg>