<svg viewBox="0 0 16 16" fill="none" xmlns="http://www.w3.org/2000/svg" class="!size-4 cursor-pointer fill-current">
<path d="M7.84701 2.00195L8.30736 2.48416C8.50663 2.29392 8.56836 2.0007 8.4627 1.74627C8.35704 1.49184 8.10576 1.32861 7.83034 1.33549L7.84701 2.00195ZM6.49935 5.14941L5.83268 5.14937V5.14944L6.49935 5.14941ZM10.8509 9.50098L10.8509 10.1676H10.851L10.8509 9.50098ZM13.9984 8.15234L14.6648 8.16896C14.6717 7.89354 14.5084 7.64226 14.254 7.53663C13.9995 7.43099 13.7063 7.49276 13.5161 7.69206L13.9984 8.15234ZM7.99935 14.0029L7.9993 14.6696H7.99936L7.99935 14.0029ZM1.9974 8L1.33073 7.99993V8H1.9974ZM7.84701 2.00195L7.38666 1.51975C6.43048 2.43259 5.83278 3.72155 5.83268 5.14937L6.49935 5.14941L7.16602 5.14946C7.16609 4.10124 7.60343 3.15619 8.30736 2.48416L7.84701 2.00195ZM6.49935 5.14941L5.83268 5.14944C5.83279 7.92071 8.07967 10.1675 10.8509 10.1676L10.8509 9.50098L10.851 8.83431C8.81603 8.83417 7.16609 7.18428 7.16602 5.14939L6.49935 5.14941ZM10.8509 9.50098L10.851 10.1676C12.2793 10.1675 13.5679 9.56892 14.4806 8.61263L13.9984 8.15234L13.5161 7.69206C12.8439 8.39641 11.899 8.8342 10.8508 8.83431L10.8509 9.50098ZM13.9984 8.15234L13.3319 8.13573C13.26 11.0198 10.9003 13.3362 7.99935 13.3363L7.99935 14.0029L7.99936 14.6696C11.6261 14.6696 14.575 11.7738 14.6648 8.16896L13.9984 8.15234ZM7.99935 14.0029L7.9994 13.3363C5.05302 13.336 2.66407 10.9466 2.66407 8H1.9974H1.33073C1.33073 11.6828 4.31644 14.6693 7.9993 14.6696L7.99935 14.0029ZM1.9974 8L2.66407 8.00007C2.66437 5.09948 4.98005 2.74052 7.86367 2.66841L7.84701 2.00195L7.83034 1.33549C4.22597 1.42562 1.33111 4.37364 1.33073 7.99993L1.9974 8Z" fill="currentColor"/>
</svg>