<svg width="16" height="16" viewBox="0 0 16 16" fill="none" xmlns="http://www.w3.org/2000/svg">
<path d="M10.0198 6.17413C10.1169 5.88306 10.161 5.74194 10.2403 5.71548C10.2756 5.70666 10.3109 5.70666 10.3462 5.71548C10.4256 5.74194 10.4697 5.88306 10.5667 6.17413C10.9636 7.38251 11.1577 7.98229 11.5369 8.45859C11.7133 8.67909 11.9074 8.87314 12.1279 9.04954C12.6042 9.42 13.204 9.62286 14.4123 10.0198C14.7034 10.1168 14.8445 10.1609 14.871 10.2403C14.8798 10.2756 14.8798 10.3108 14.871 10.3461C14.8445 10.4255 14.7034 10.4696 14.4123 10.5666C13.204 10.9635 12.6042 11.1576 12.1279 11.5369C11.9074 11.7133 11.7133 11.9073 11.5369 12.1278C11.1665 12.6041 10.9636 13.2039 10.5667 14.4123C10.4697 14.7033 10.4256 14.8445 10.3462 14.8709C10.3109 14.8798 10.2756 14.8798 10.2403 14.8709C10.161 14.8445 10.1169 14.7033 10.0198 14.4123C9.62293 13.2039 9.42888 12.6041 9.04961 12.1278C8.8732 11.9073 8.67916 11.7133 8.45865 11.5369C7.98235 11.1664 7.38257 10.9635 6.17419 10.5666C5.88312 10.4696 5.742 10.4255 5.71554 10.3461C5.70672 10.3108 5.70672 10.2756 5.71554 10.2403C5.742 10.1609 5.88312 10.1168 6.17419 10.0198C7.38257 9.62286 7.98235 9.42882 8.45865 9.04954C8.67916 8.87314 8.8732 8.67909 9.04961 8.45859C9.42888 7.98229 9.62293 7.38251 10.0198 6.17413ZM3.99558 3.73091C4.05733 3.53687 4.09261 3.43984 4.14553 3.4222C4.17199 3.41338 4.18963 3.41338 4.21609 3.4222C4.26901 3.43984 4.29547 3.53687 4.36604 3.73091C4.63064 4.53356 4.76295 4.93929 5.00992 5.25682C5.12458 5.40677 5.25688 5.53907 5.40683 5.65374C5.72436 5.9007 6.13009 6.03301 6.93274 6.29762C7.12679 6.35936 7.22381 6.39464 7.24145 6.44756C7.25027 6.47402 7.25027 6.49166 7.24145 6.51812C7.22381 6.57104 7.12679 6.59751 6.93274 6.66807C6.13009 6.93268 5.72436 7.06498 5.40683 7.31195C5.25688 7.42661 5.12458 7.55892 5.00992 7.70886C4.76295 8.02639 4.63064 8.43213 4.36604 9.23477C4.30429 9.42882 4.26901 9.52584 4.21609 9.54348C4.18963 9.5523 4.17199 9.5523 4.14553 9.54348C4.09261 9.52584 4.06615 9.42882 3.99558 9.23477C3.73098 8.43213 3.59867 8.02639 3.3517 7.70886C3.23704 7.55892 3.10474 7.42661 2.95479 7.31195C2.63726 7.06498 2.23153 6.93268 1.42888 6.66807C1.23483 6.60633 1.13781 6.57104 1.12017 6.51812C1.11135 6.49166 1.11135 6.47402 1.12017 6.44756C1.13781 6.39464 1.23483 6.36818 1.42888 6.29762C2.23153 6.03301 2.63726 5.9007 2.95479 5.65374C3.10474 5.53907 3.23704 5.40677 3.3517 5.25682C3.59867 4.93047 3.73098 4.53356 3.99558 3.73091ZM8.27342 1.32298C8.3087 1.19949 8.33516 1.14657 8.36162 1.12893C8.37927 1.12011 8.38809 1.12011 8.40573 1.12893C8.44101 1.13775 8.45865 1.19949 8.49393 1.32298C8.66151 1.82573 8.7409 2.0727 8.89966 2.27557C8.97023 2.36377 9.05843 2.45197 9.14663 2.52253C9.3495 2.6813 9.59646 2.76068 10.0992 2.92827C10.2227 2.96355 10.2756 2.99001 10.2933 3.01647C10.3021 3.03411 10.3021 3.04293 10.2933 3.06057C10.2844 3.09585 10.2227 3.11349 10.0992 3.14877C9.59646 3.31636 9.3495 3.39574 9.14663 3.55451C9.05843 3.62507 8.97023 3.71327 8.89966 3.80148C8.7409 4.00434 8.66151 4.25131 8.49393 4.75407C8.45865 4.87755 8.43219 4.93047 8.40573 4.94811C8.38809 4.95693 8.37927 4.95693 8.36162 4.94811C8.32634 4.93929 8.3087 4.87755 8.27342 4.75407C8.10584 4.25131 8.02645 4.00434 7.86769 3.80148C7.79713 3.71327 7.70892 3.62507 7.62072 3.55451C7.41785 3.39574 7.17089 3.31636 6.66813 3.14877C6.54465 3.11349 6.49172 3.08703 6.47408 3.06057C6.46526 3.04293 6.46526 3.03411 6.47408 3.01647C6.4829 2.98119 6.54465 2.96355 6.66813 2.92827C7.17089 2.76068 7.41785 2.6813 7.62072 2.52253C7.70892 2.45197 7.79713 2.36377 7.86769 2.27557C8.01763 2.0727 8.10584 1.82573 8.27342 1.32298Z" fill="currentColor"/>
</svg>
