<svg width="16" height="14" viewBox="0 0 16 14" fill="none" xmlns="http://www.w3.org/2000/svg">
<g clip-path="url(#clip0_359_19123)">
<path d="M12.5217 14.0003C10.6009 14.0003 9.04348 12.3507 9.04348 10.316C9.04348 8.28144 10.6009 6.63184 12.5217 6.63184C14.4426 6.63184 16 8.28144 16 10.316C16 12.3507 14.4426 14.0003 12.5217 14.0003ZM11.7461 11.7627C11.7797 11.7984 11.8197 11.8266 11.8636 11.8459C11.9076 11.8652 11.9547 11.8752 12.0023 11.8752C12.0499 11.8752 12.097 11.8652 12.141 11.8459C12.185 11.8266 12.2249 11.7984 12.2586 11.7627L14.4551 9.43613C14.4887 9.40049 14.5154 9.35818 14.5336 9.31161C14.5518 9.26505 14.5612 9.21513 14.5612 9.16473C14.5612 9.11433 14.5518 9.06442 14.5336 9.01785C14.5154 8.97128 14.4887 8.92897 14.4551 8.89333C14.4214 8.85769 14.3815 8.82941 14.3375 8.81012C14.2935 8.79084 14.2464 8.78091 14.1988 8.78091C14.1513 8.78091 14.1041 8.79084 14.0602 8.81012C14.0162 8.82941 13.9763 8.85769 13.9426 8.89333L11.9867 10.9319L11.1113 10.0047C11.0433 9.93275 10.9512 9.89231 10.8551 9.89231C10.759 9.89231 10.6668 9.93275 10.5988 10.0047C10.5309 10.0767 10.4927 10.1743 10.4927 10.2761C10.4927 10.3265 10.5021 10.3764 10.5203 10.423C10.5385 10.4696 10.5652 10.5119 10.5988 10.5475L11.7461 11.7627Z" fill="currentColor"/>
</g>
<path d="M11.9131 0C13.0176 2.23507e-05 13.9131 0.895444 13.9131 2V6.14648C13.4779 5.98354 13.0094 5.89453 12.5215 5.89453C10.2165 5.89468 8.34784 7.874 8.34766 10.3154C8.34766 11.448 8.75095 12.4805 9.41211 13.2627H2C0.895431 13.2627 0 12.3673 0 11.2627V2C5.72358e-07 0.895431 0.895431 0 2 0H11.9131Z" fill="currentColor"/>
<defs>
<clipPath id="clip0_359_19123">
<rect width="6.95652" height="7.36842" fill="currentColor" transform="translate(9.04348 6.63184)"/>
</clipPath>
</defs>
</svg>
