<svg width="16" height="16" viewBox="0 0 16 16" fill="none" xmlns="http://www.w3.org/2000/svg">
<path d="M8 0C6.41775 0 4.87103 0.469192 3.55544 1.34824C2.23985 2.22729 1.21447 3.47672 0.608967 4.93853C0.00346634 6.40034 -0.15496 8.00887 0.153721 9.56072C0.462403 11.1126 1.22433 12.538 2.34315 13.6568C3.46197 14.7757 4.88743 15.5376 6.43928 15.8463C7.99113 16.155 9.59966 15.9965 11.0615 15.391C12.5233 14.7855 13.7727 13.7602 14.6518 12.4446C15.5308 11.129 16 9.58225 16 8C16 6.94942 15.7931 5.90914 15.391 4.93853C14.989 3.96793 14.3997 3.08601 13.6569 2.34315C12.914 1.60028 12.0321 1.011 11.0615 0.608964C10.0909 0.206926 9.05058 0 8 0ZM8 1.00444C9.85462 1.0068 11.6326 1.74458 12.944 3.05599C14.2554 4.3674 14.9932 6.14538 14.9956 8C14.9978 9.56154 14.4714 11.0779 13.5022 12.3022C13.0376 11.2216 12.2698 10.2987 11.2918 9.64503C10.3138 8.99141 9.16745 8.63507 7.99125 8.61909C6.81505 8.6031 5.6594 8.92816 4.664 9.55497C3.6686 10.1818 2.87608 11.0835 2.38223 12.1511C1.61145 11.1111 1.14477 9.87737 1.03426 8.58759C0.92374 7.29781 1.17373 6.00268 1.75633 4.84669C2.33894 3.6907 3.23125 2.7193 4.33373 2.04085C5.43621 1.36241 6.7055 1.00359 8 1.00444Z" fill="currentColor"/>
<path d="M4.99561 5.3512C4.99561 6.12681 5.3084 6.87066 5.86517 7.4191C6.42195 7.96754 7.1771 8.27565 7.96449 8.27565C8.75189 8.27565 9.50704 7.96754 10.0638 7.4191C10.6206 6.87066 10.9334 6.12681 10.9334 5.3512C10.9334 4.57559 10.6206 3.83175 10.0638 3.28331C9.50704 2.73487 8.75189 2.42676 7.96449 2.42676C7.1771 2.42676 6.42195 2.73487 5.86517 3.28331C5.3084 3.83175 4.99561 4.57559 4.99561 5.3512Z" fill="currentColor"/>
</svg>
