<svg width="1097" height="988" viewBox="0 0 1097 988" fill="none" xmlns="http://www.w3.org/2000/svg">
<path d="M62.253 985.137C15.2869 981.346 4.27352 938.341 4.63756 917.312C1.19914 649.514 -3.6691 102.644 4.36527 57.5415C12.3996 12.4395 45.0506 0.958779 60.3718 0.856151C264.256 0.210079 677.126 -0.694421 697.536 0.856151C717.544 -2.13354 741.711 9.76821 751.293 16.0928C767.583 32.1912 805.469 70.2334 826.695 93.6158C843.031 119.184 877.892 125.281 893.281 125.132C920.358 125.576 985.612 126.198 1030 125.132C1074.39 124.067 1091.32 163.16 1094.23 182.839C1095.81 412.687 1098.03 883.013 1094.23 925.538C1090.44 968.062 1056.09 982.989 1039.39 985.137C733.245 986.717 109.219 988.928 62.253 985.137Z" fill="#F95E5E"/>
</svg>
