<svg width="16" height="16" viewBox="0 0 16 16" fill="none" xmlns="http://www.w3.org/2000/svg">
<path d="M6.80999 2.04387C6.16699 2.12621 5.54558 2.32219 4.96305 2.62633C3.79287 3.23731 2.85072 4.25788 2.31016 5.50008C2.19351 5.76812 2.30572 6.08477 2.56078 6.20736C2.81582 6.32993 3.11715 6.21203 3.2338 5.94399C4.15876 3.81845 6.4041 2.66413 8.57278 3.19926C10.2348 3.60946 11.5358 4.92359 12.0059 6.61835L11.1067 6.62186L12.5627 9.24895L14 6.61056L13.0547 6.61424C12.8273 5.60797 12.3572 4.68161 11.6827 3.91721C10.9102 3.04174 9.91512 2.43417 8.80494 2.16018C8.14674 1.99776 7.47552 1.95861 6.80999 2.04387ZM1 9.38929L1.94527 9.38566C2.17273 10.392 2.64287 11.3184 3.31739 12.0829C4.08991 12.9584 5.08504 13.566 6.19529 13.8399C6.6275 13.9465 7.06529 14 7.50347 14C7.73198 14 7.9606 13.9854 8.18855 13.9563C8.83103 13.8742 9.452 13.6787 10.0342 13.3752C11.2036 12.7655 12.1457 11.7468 12.6871 10.5066C12.8041 10.2387 12.6922 9.92192 12.4373 9.79903C12.1824 9.67611 11.8809 9.79368 11.764 10.0616C10.8379 12.1831 8.59347 13.3351 6.4274 12.8008C4.76526 12.3907 3.4642 11.0765 2.99417 9.38163L3.89331 9.37816L2.43744 6.75099L1 9.38929Z" fill="currentColor"/>
</svg>
