<svg width="12" height="12" viewBox="0 0 12 12" fill="none" xmlns="http://www.w3.org/2000/svg">
<path d="M6 12C5.84246 12 5.69706 11.9112 5.61875 11.7674L4.74187 10.1539H1.02444C0.459708 10.1539 0 9.67073 0 9.07687V1.07698C0 0.483286 0.459554 0 1.02444 0H10.9756C11.5403 0 12 0.483125 12 1.07698V9.07687C12 9.67057 11.5404 10.1539 10.9756 10.1539H7.25813L6.38125 11.7674C6.34282 11.838 6.28733 11.8968 6.22038 11.9376C6.15343 11.9784 6.07741 12 6 12ZM1.02444 0.923151C0.943829 0.923151 0.878112 0.992077 0.878112 1.07698V9.07687C0.878112 9.16178 0.943829 9.23071 1.02444 9.23071H4.99644C5.15398 9.23071 5.29938 9.31949 5.37769 9.46331L6 10.6083L6.62216 9.46347C6.66059 9.39284 6.71609 9.33414 6.78304 9.29329C6.84998 9.25245 6.926 9.23091 7.0034 9.23087H10.9754C11.056 9.23087 11.1217 9.16194 11.1217 9.07704V1.07714C11.1217 0.992239 11.056 0.923313 10.9754 0.923313H1.02444V0.923151Z" fill="currentColor"/>
</svg>
