<svg width="16" height="16" viewBox="0 0 16 16" fill="none" xmlns="http://www.w3.org/2000/svg">
<path d="M8.5 10C7.65 10 7 9.35 7 8.5C7 7.65 7.65 7 8.5 7C9.35 7 10 7.65 10 8.5C10 9.35 9.35 10 8.5 10ZM8.5 7.5C7.95 7.5 7.5 7.95 7.5 8.5C7.5 9.05 7.95 9.5 8.5 9.5C9.05 9.5 9.5 9.05 9.5 8.5C9.5 7.95 9.05 7.5 8.5 7.5Z" fill="currentColor"/>
<path d="M10.1242 15H6.87582C6.6322 15 6.46978 14.8375 6.46978 14.5938V13.05C6.14494 12.8875 5.82011 12.725 5.57648 12.5625L4.27714 13.375C4.11472 13.4563 3.87109 13.4563 3.70868 13.2125L2.0845 10.3688C1.92208 10.125 2.00329 9.88125 2.24692 9.8L3.54626 8.9875V8.0125L2.24692 7.2C2.00329 7.11875 1.92208 6.875 2.0845 6.63125L3.70868 3.7875C3.78989 3.625 4.03351 3.54375 4.27714 3.70625L5.57648 4.51875C5.82011 4.35625 6.14494 4.1125 6.46978 4.03125V2.40625C6.46978 2.1625 6.6322 2 6.87582 2H10.1242C10.3678 2 10.5302 2.1625 10.5302 2.40625V3.95C10.8551 4.1125 11.1799 4.275 11.4235 4.4375L12.7229 3.625C12.8853 3.54375 13.1289 3.54375 13.2913 3.7875L14.9155 6.63125C15.0779 6.875 14.9967 7.11875 14.7531 7.2L13.4537 8.0125V8.9875L14.7531 9.8C14.9155 9.88125 14.9967 10.125 14.9155 10.3688L13.2913 13.2125C13.2101 13.375 12.9665 13.4563 12.7229 13.375L11.4235 12.5625C11.1799 12.725 10.8551 12.9688 10.5302 13.05V14.5938C10.5302 14.8375 10.3678 15 10.1242 15ZM7.28187 14.1875H9.71813V12.8063C9.71813 12.6438 9.79934 12.4812 9.96176 12.4C10.3678 12.2375 10.7738 11.9937 11.0987 11.75C11.2611 11.6687 11.4235 11.6687 11.5859 11.75L12.8041 12.4812L14.0222 10.3688L12.8041 9.6375C12.6417 9.475 12.5604 9.3125 12.6417 9.15C12.6417 8.90625 12.7229 8.74375 12.7229 8.5C12.7229 8.25625 12.7229 8.09375 12.6417 7.85C12.6417 7.6875 12.7229 7.525 12.8041 7.44375L14.0222 6.7125L12.8041 4.6L11.5859 5.33125C11.4235 5.4125 11.2611 5.4125 11.0987 5.33125C10.7738 5.0875 10.3678 4.84375 9.96176 4.68125C9.79934 4.51875 9.71813 4.35625 9.71813 4.19375V2.8125H7.28187V4.19375C7.28187 4.35625 7.20066 4.51875 7.03824 4.6C6.6322 4.7625 6.22615 5.00625 5.90132 5.25C5.7389 5.33125 5.57648 5.33125 5.41406 5.25L4.19593 4.6L2.9778 6.7125L4.19593 7.44375C4.35835 7.525 4.43956 7.6875 4.35835 7.85C4.35835 8.09375 4.27714 8.25625 4.27714 8.5C4.27714 8.74375 4.27714 8.90625 4.35835 9.15C4.43956 9.3125 4.35835 9.475 4.19593 9.55625L2.9778 10.2875L4.19593 12.4L5.41406 11.6687C5.57648 11.5875 5.7389 11.5875 5.90132 11.6687C6.22615 11.9125 6.6322 12.1562 7.03824 12.3187C7.20066 12.4 7.28187 12.5625 7.28187 12.725V14.1875Z" fill="currentColor"/>
</svg>
