<svg width="16" height="16" viewBox="0 0 16 16" fill="none" xmlns="http://www.w3.org/2000/svg">
<path d="M7.99996 9.8466C6.95381 9.8466 6.15381 9.0466 6.15381 8.00045C6.15381 6.9543 6.95381 6.1543 7.99996 6.1543C9.04612 6.1543 9.84612 6.9543 9.84612 8.00045C9.84612 9.0466 9.04612 9.8466 7.99996 9.8466ZM7.99996 6.76968C7.32304 6.76968 6.76919 7.32353 6.76919 8.00045C6.76919 8.67737 7.32304 9.23122 7.99996 9.23122C8.67689 9.23122 9.23073 8.67737 9.23073 8.00045C9.23073 7.32353 8.67689 6.76968 7.99996 6.76968Z" fill="currentColor"/>
<path d="M9.99899 16H6.00101C5.70116 16 5.50127 15.8 5.50127 15.5V13.6C5.10147 13.4 4.70167 13.2 4.40182 13L2.80263 14C2.60273 14.1 2.30289 14.1 2.10299 13.8L0.103999 10.3C-0.0958996 10 0.00404978 9.7 0.303898 9.6L1.90309 8.6V7.4L0.303898 6.4C0.00404978 6.3 -0.0958996 6 0.103999 5.7L2.10299 2.2C2.20294 2 2.50278 1.9 2.80263 2.1L4.40182 3.1C4.70167 2.9 5.10147 2.6 5.50127 2.5V0.5C5.50127 0.2 5.70116 0 6.00101 0H9.99899C10.2988 0 10.4987 0.2 10.4987 0.5V2.4C10.8985 2.6 11.2983 2.8 11.5982 3L13.1974 2C13.3973 1.9 13.6971 1.9 13.897 2.2L15.896 5.7C16.0959 6 15.996 6.3 15.6961 6.4L14.0969 7.4V8.6L15.6961 9.6C15.896 9.7 15.996 10 15.896 10.3L13.897 13.8C13.7971 14 13.4972 14.1 13.1974 14L11.5982 13C11.2983 13.2 10.8985 13.5 10.4987 13.6V15.5C10.4987 15.8 10.2988 16 9.99899 16ZM6.50076 15H9.49924V13.3C9.49924 13.1 9.59919 12.9 9.79909 12.8C10.2988 12.6 10.7986 12.3 11.1984 12C11.3983 11.9 11.5982 11.9 11.7981 12L13.2973 12.9L14.7966 10.3L13.2973 9.4C13.0974 9.2 12.9975 9 13.0974 8.8C13.0974 8.5 13.1974 8.3 13.1974 8C13.1974 7.7 13.1974 7.5 13.0974 7.2C13.0974 7 13.1974 6.8 13.2973 6.7L14.7966 5.8L13.2973 3.2L11.7981 4.1C11.5982 4.2 11.3983 4.2 11.1984 4.1C10.7986 3.8 10.2988 3.5 9.79909 3.3C9.59919 3.1 9.49924 2.9 9.49924 2.7V1H6.50076V2.7C6.50076 2.9 6.40081 3.1 6.20091 3.2C5.70116 3.4 5.20142 3.7 4.80162 4C4.60172 4.1 4.40182 4.1 4.20192 4L2.70268 3.2L1.20344 5.8L2.70268 6.7C2.90258 6.8 3.00253 7 2.90258 7.2C2.90258 7.5 2.80263 7.7 2.80263 8C2.80263 8.3 2.80263 8.5 2.90258 8.8C3.00253 9 2.90258 9.2 2.70268 9.3L1.20344 10.2L2.70268 12.8L4.20192 11.9C4.40182 11.8 4.60172 11.8 4.80162 11.9C5.20142 12.2 5.70116 12.5 6.20091 12.7C6.40081 12.8 6.50076 13 6.50076 13.2V15Z" fill="currentColor"/>
</svg>
