<svg viewBox="0 0 16 16" fill="none" xmlns="http://www.w3.org/2000/svg" class="!size-4 cursor-pointer fill-current">
<path d="M8.00061 13.3335C8.55267 13.3338 9.00061 13.7814 9.00061 14.3335C9.00043 14.8855 8.55256 15.3332 8.00061 15.3335C7.44843 15.3335 7.00079 14.8856 7.00061 14.3335C7.00061 13.7812 7.44833 13.3335 8.00061 13.3335ZM2.81506 11.771C3.20552 11.3808 3.83866 11.3808 4.22913 11.771C4.61931 12.1615 4.61954 12.7956 4.22913 13.186C3.83877 13.5761 3.20555 13.5759 2.81506 13.186C2.42454 12.7955 2.42454 12.1615 2.81506 11.771ZM11.7721 11.771C12.1627 11.3809 12.7958 11.3806 13.1862 11.771C13.5763 12.1614 13.5762 12.7946 13.1862 13.1851C12.7957 13.5755 12.1626 13.5753 11.7721 13.1851C11.3816 12.7945 11.3816 12.1615 11.7721 11.771ZM1.66663 7.00049C2.21891 7.00049 2.66663 7.4482 2.66663 8.00049C2.66627 8.55247 2.21869 9.00049 1.66663 9.00049C1.11463 9.0004 0.666978 8.55242 0.666626 8.00049C0.666626 7.44826 1.11441 7.00057 1.66663 7.00049ZM14.3336 6.99951C14.8857 6.9996 15.3334 7.44751 15.3336 7.99951C15.3335 8.55167 14.8858 8.99942 14.3336 8.99951C13.7814 8.99951 13.3337 8.55172 13.3336 7.99951C13.3339 7.44745 13.7815 6.99951 14.3336 6.99951ZM2.81409 2.81494C3.20458 2.42445 3.83762 2.42451 4.22815 2.81494C4.61867 3.20547 4.61867 3.83848 4.22815 4.229C3.83758 4.61896 3.20442 4.61934 2.81409 4.229C2.42384 3.83866 2.42416 3.20548 2.81409 2.81494ZM11.7711 2.81396C12.1615 2.42367 12.7947 2.42388 13.1852 2.81396C13.5757 3.20446 13.5756 3.8375 13.1852 4.22803C12.7947 4.61855 12.1616 4.61855 11.7711 4.22803C11.381 3.83747 11.3807 3.20435 11.7711 2.81396ZM7.99963 0.666504C8.55192 0.666504 8.99963 1.11422 8.99963 1.6665C8.99963 2.21879 8.55192 2.6665 7.99963 2.6665C7.44757 2.66624 6.99963 2.21863 6.99963 1.6665C6.99963 1.11438 7.44757 0.666766 7.99963 0.666504Z" fill="currentColor"/>
<path d="M7.99963 4.79443L7.99965 4.12777H7.99963L7.99963 4.79443ZM11.2047 7.99951L11.8714 7.99953V7.99948L11.2047 7.99951ZM7.99963 11.2046L7.99963 11.8713H7.99965L7.99963 11.2046ZM4.79456 7.99951L4.12789 7.99948V7.99953L4.79456 7.99951ZM7.99963 4.79443L7.99962 5.4611C9.40162 5.46114 10.538 6.59751 10.538 7.99954L11.2047 7.99951L11.8714 7.99948C11.8713 5.86115 10.138 4.12782 7.99965 4.12777L7.99963 4.79443ZM11.2047 7.99951L10.538 7.99949C10.538 9.40153 9.40166 10.5379 7.99962 10.5379L7.99963 11.2046L7.99965 11.8713C10.138 11.8712 11.8713 10.1379 11.8714 7.99953L11.2047 7.99951ZM7.99963 11.2046L7.99964 10.5379C6.59759 10.5379 5.46126 9.40157 5.46122 7.99949L4.79456 7.99951L4.12789 7.99953C4.12795 10.1379 5.86119 11.8712 7.99963 11.8713L7.99963 11.2046ZM4.79456 7.99951L5.46122 7.99954C5.46129 6.59748 6.59763 5.46111 7.99964 5.4611L7.99963 4.79443L7.99963 4.12777C5.8612 4.12779 4.128 5.86114 4.12789 7.99948L4.79456 7.99951Z" fill="currentColor"/>
</svg>