<svg width="16" height="16" viewBox="0 0 16 16" fill="none" xmlns="http://www.w3.org/2000/svg">
<path d="M2 1C2.17681 1 2.34638 1.07024 2.4714 1.19526C2.59643 1.32029 2.66667 1.48986 2.66667 1.66667V12.9333C2.66442 13.064 2.66686 13.1948 2.674 13.3253L2.68333 13.3267C2.76067 13.3333 2.86867 13.3333 3.06667 13.3333H14.3333C14.5101 13.3333 14.6797 13.4036 14.8047 13.5286C14.9298 13.6536 15 13.8232 15 14C15 14.1768 14.9298 14.3464 14.8047 14.4714C14.6797 14.5964 14.5101 14.6667 14.3333 14.6667H2.66667C2.48199 14.667 2.29929 14.6288 2.13021 14.5545C1.96113 14.4802 1.80939 14.3715 1.68467 14.2353C1.4583 13.9895 1.33286 13.6675 1.33333 13.3333V12.9967V1.66667C1.33333 1.48986 1.40357 1.32029 1.5286 1.19526C1.65362 1.07024 1.82319 1 2 1Z" fill="currentColor"/>
<path d="M11.3333 5.33333C11.2458 5.33335 11.1591 5.31611 11.0782 5.28262C10.9973 5.24912 10.9238 5.20001 10.8619 5.13811C10.7999 5.0762 10.7508 5.0027 10.7173 4.92181C10.6838 4.84092 10.6666 4.75422 10.6666 4.66667C10.6666 4.57911 10.6838 4.49241 10.7173 4.41152C10.7508 4.33063 10.7999 4.25713 10.8619 4.19523C10.9238 4.13332 10.9973 4.08421 11.0782 4.05072C11.1591 4.01722 11.2458 3.99999 11.3333 4H14C14.1768 4 14.3464 4.07024 14.4714 4.19526C14.5964 4.32029 14.6667 4.48986 14.6667 4.66667V7.33333C14.6667 7.51014 14.5964 7.67971 14.4714 7.80474C14.3464 7.92976 14.1768 8 14 8C13.8232 8 13.6536 7.92976 13.5286 7.80474C13.4036 7.67971 13.3333 7.51014 13.3333 7.33333V6.276L10.8487 8.76067L10.8373 8.772C10.7813 8.828 10.7147 8.89533 10.6507 8.94933C10.5767 9.012 10.464 9.096 10.3087 9.14667C10.108 9.21177 9.89196 9.21177 9.69133 9.14667C9.56541 9.10414 9.44917 9.03707 9.34933 8.94933C9.28481 8.89269 9.22254 8.83354 9.16267 8.772L9.15133 8.76067L8 7.60933L5.138 10.4713C5.01226 10.5928 4.84386 10.66 4.66907 10.6584C4.49427 10.6569 4.32706 10.5868 4.20345 10.4632C4.07985 10.3396 4.00974 10.1724 4.00822 9.9976C4.0067 9.8228 4.07389 9.6544 4.19533 9.52867L7.15133 6.57267L7.16267 6.56133C7.21867 6.50533 7.28533 6.438 7.34933 6.384C7.42333 6.32133 7.536 6.23733 7.69133 6.18733C7.89196 6.12223 8.10804 6.12223 8.30867 6.18733C8.464 6.23733 8.57667 6.32067 8.65067 6.384C8.71467 6.438 8.78133 6.50533 8.83733 6.56133L8.84867 6.57267L10 7.724L12.3907 5.33333H11.3333Z" fill="currentColor"/>
</svg>
