<svg width="8" height="8" viewBox="0 0 8 8" fill="none" xmlns="http://www.w3.org/2000/svg">
<path d="M7.45383 3.00428L4.64487 0.952851C4.60306 0.91015 4.5515 0.875926 4.49366 0.852478C4.43582 0.829029 4.37303 0.816898 4.30951 0.816898C4.24598 0.816898 4.18319 0.829029 4.12535 0.852478C4.06751 0.875926 4.01596 0.91015 3.97415 0.952851L1.13895 3.00428C1.0494 3.09506 1 3.21188 1 3.33285C1 3.45382 1.0494 3.57064 1.13895 3.66142C1.23175 3.75171 1.35335 3.83742 1.47495 3.83742C1.59655 3.83742 1.68167 3.78942 1.81415 3.69685L3.83463 2.25628V6.39285C3.83463 6.64999 4.04711 6.85742 4.30951 6.85742C4.57191 6.85742 4.78439 6.64999 4.78439 6.39285V2.22942L6.73127 3.72028C6.98279 3.90771 7.23815 3.88257 7.42375 3.70142C7.60935 3.51971 7.63879 3.18542 7.45383 3.00428Z" fill="currentColor" stroke="currentColor" stroke-width="0.5"/>
</svg>
