<svg width="12" height="12" viewBox="0 0 12 12" fill="none" xmlns="http://www.w3.org/2000/svg">
<path d="M11.9878 10.8511C11.9842 10.8013 11.977 10.7257 11.964 10.6274C11.9398 10.4439 11.9037 10.2405 11.853 10.022C11.7083 9.39836 11.4751 8.77439 11.1324 8.18911C10.2321 6.65213 8.75815 5.67092 6.62742 5.51141C7.87982 5.22841 8.81422 4.11768 8.81422 2.79064C8.81422 1.24946 7.55371 -1.29594e-08 5.99885 0C4.444 0 3.18349 1.24946 3.18349 2.79064C3.18349 4.11785 4.11806 5.22841 5.37046 5.51158C3.23973 5.67109 1.76576 6.65263 0.865306 8.18995C0.522653 8.77522 0.289433 9.39937 0.144536 10.0232C0.0938725 10.2417 0.0575638 10.4453 0.0334142 10.6287C0.0200729 10.7304 0.0126423 10.8077 0.00943357 10.8573C-0.0724722 11.4797 0.388396 12 1.02557 12H10.9718C11.6122 12 12.0828 11.4742 11.9878 10.8511ZM3.93432 2.79064C3.93432 1.66031 4.85859 0.744115 5.99885 0.744115C7.13912 0.744115 8.06339 1.66031 8.06339 2.79064C8.06339 3.92097 7.13895 4.83716 5.99885 4.83716C4.85876 4.83716 3.93432 3.92097 3.93432 2.79064ZM10.9721 11.2559H1.02574C0.839806 11.2559 0.728009 11.128 0.754691 10.9472L0.757225 10.9305L0.758069 10.9136C0.758407 10.908 0.75942 10.8933 0.761615 10.87C0.765331 10.8288 0.770735 10.7802 0.777997 10.7249C0.799106 10.5646 0.831024 10.3846 0.876115 10.1902C1.00514 9.63462 1.21252 9.07934 1.51464 8.5636C2.37035 7.10235 3.80209 6.23257 5.99885 6.23257C8.19579 6.23257 9.62736 7.10218 10.4831 8.56293C10.785 9.07833 10.9924 9.63344 11.1214 10.1891C11.1665 10.3833 11.1986 10.563 11.2195 10.7236C11.2268 10.7789 11.2322 10.8274 11.2358 10.8687C11.238 10.892 11.239 10.9065 11.2393 10.9122L11.2405 10.9338L11.2442 10.9551C11.2743 11.1267 11.1604 11.2559 10.9721 11.2559Z" fill="currentColor"/>
</svg>
