<svg width="16" height="16" viewBox="0 0 16 16" fill="none" xmlns="http://www.w3.org/2000/svg">
<path d="M13.0056 5.3874H3.28274L3.22094 5.16081C3.07675 4.66642 3.32394 4.14114 3.78743 3.93515L9.99813 1.17483C10.2453 1.06153 10.5337 1.05123 10.7912 1.15423C11.0487 1.25723 11.2547 1.44262 11.368 1.70011L13.0056 5.3874ZM3.80803 4.76942H12.0478L10.8015 1.94731C10.7603 1.84431 10.6779 1.77221 10.5749 1.73101C10.4719 1.68982 10.3586 1.68981 10.2556 1.74131L4.04492 4.50163C3.92132 4.55313 3.84922 4.65612 3.80803 4.76942Z" fill="white"/>
<path d="M13.0056 5.3874H2.12915V4.87242C2.12915 3.90425 2.91193 3.12147 3.8801 3.12147H5.62074L9.99811 1.17483C10.2453 1.06153 10.5337 1.05123 10.7912 1.15423C11.0487 1.25723 11.2547 1.44262 11.368 1.70011L13.0056 5.3874ZM2.74713 4.76942H12.0477L10.8015 1.94731C10.7603 1.84431 10.6779 1.77221 10.5749 1.73101C10.4719 1.68982 10.3586 1.68981 10.2556 1.74131L5.75464 3.73945H3.8801C3.29301 3.73945 2.80893 4.19264 2.74713 4.76942Z" fill="white"/>
<path d="M13.0468 13.4213H2.95312C2.49994 13.4213 2.12915 13.0505 2.12915 12.5973V4.76953H13.0468C13.5 4.76953 13.8708 5.14032 13.8708 5.59351V12.5973C13.8708 13.0505 13.5 13.4213 13.0468 13.4213ZM2.74713 5.38751V12.5973C2.74713 12.7106 2.83983 12.8033 2.95312 12.8033H13.0468C13.1601 12.8033 13.2528 12.7106 13.2528 12.5973V5.59351C13.2528 5.48021 13.1601 5.38751 13.0468 5.38751H2.74713Z" fill="white"/>
<path d="M11.2444 10.6406C10.7603 10.6406 10.3689 10.2492 10.3689 9.76512V8.52916C10.3689 8.04507 10.7603 7.65369 11.2444 7.65369C11.7285 7.65369 12.1199 8.04507 12.1199 8.52916V9.76512C12.1199 10.2492 11.7285 10.6406 11.2444 10.6406ZM11.2444 8.27167C11.1002 8.27167 10.9869 8.38496 10.9869 8.52916V9.76512C10.9869 9.90932 11.1002 10.0226 11.2444 10.0226C11.3886 10.0226 11.5019 9.90932 11.5019 9.76512V8.52916C11.5019 8.38496 11.3886 8.27167 11.2444 8.27167ZM5.42932 4.80809L11.2006 2.35059L11.4427 2.91913L5.67147 5.37663L5.42932 4.80809Z" fill="white"/>
</svg>
