<svg width="24" height="24" viewBox="0 0 24 24" fill="none" xmlns="http://www.w3.org/2000/svg">
<path d="M19.9012 21.7656H4.09875C3.039 21.7656 2.18775 21.3501 1.7625 20.6256C1.33725 19.9011 1.389 18.9546 1.905 18.0299L9.87825 3.74089C10.3972 2.80939 11.169 2.27539 11.9947 2.27539C12.8205 2.27539 13.5915 2.80864 14.112 3.73939L22.0935 18.0314C22.6095 18.9561 22.6628 19.9019 22.2367 20.6264C21.8123 21.3509 20.9602 21.7656 19.9012 21.7656ZM11.9955 3.77539C11.733 3.77539 11.4323 4.03564 11.1885 4.47139L3.21525 18.7619C2.9655 19.2104 2.907 19.6131 3.05625 19.8674C3.2055 20.1209 3.58575 20.2664 4.09875 20.2664H19.9012C20.415 20.2664 20.7945 20.1216 20.9437 19.8674C21.0922 19.6139 21.0345 19.2111 20.784 18.7626L12.8025 4.47139C12.5595 4.03564 12.2572 3.77539 11.9955 3.77539Z" fill="currentColor"/>
<path d="M12 15C11.586 15 11.25 14.6648 11.25 14.25V7.5C11.25 7.086 11.586 6.75 12 6.75C12.414 6.75 12.75 7.086 12.75 7.5V14.25C12.75 14.6648 12.414 15 12 15Z" fill="currentColor"/>
<path d="M10.875 17.6289C10.875 17.9273 10.9935 18.2134 11.2045 18.4244C11.4155 18.6354 11.7016 18.7539 12 18.7539C12.2984 18.7539 12.5845 18.6354 12.7955 18.4244C13.0065 18.2134 13.125 17.9273 13.125 17.6289C13.125 17.3305 13.0065 17.0444 12.7955 16.8334C12.5845 16.6224 12.2984 16.5039 12 16.5039C11.7016 16.5039 11.4155 16.6224 11.2045 16.8334C10.9935 17.0444 10.875 17.3305 10.875 17.6289Z" fill="currentColor"/>
</svg>
