<svg width="16" height="16" viewBox="0 0 16 16" fill="none" xmlns="http://www.w3.org/2000/svg">
<path d="M8.0107 1.00684C4.15173 1.00684 1.02344 4.13515 1.02344 7.9941C1.02344 11.8531 4.15173 14.9814 8.0107 14.9814C11.8697 14.9814 14.998 11.8531 14.998 7.9941C14.998 4.13513 11.8697 1.00684 8.0107 1.00684ZM7.42271 4.71044C7.42271 4.39846 7.67189 4.14504 7.97931 4.14504C8.28656 4.14504 8.53574 4.39846 8.53574 4.71044V8.97318C8.53574 9.28541 8.28656 9.53856 7.97931 9.53856C7.67189 9.53856 7.42271 9.28541 7.42271 8.97318V4.71044ZM7.97931 11.8574C7.54147 11.8574 7.18647 11.4967 7.18647 11.0519C7.18647 10.607 7.54147 10.2463 7.97931 10.2463C8.41729 10.2463 8.7721 10.607 8.7721 11.0519C8.7721 11.4967 8.41727 11.8574 7.97931 11.8574Z" fill="currentColor"/>
</svg>
