<svg width="10" height="10" viewBox="0 0 10 10" fill="none" xmlns="http://www.w3.org/2000/svg">
<path d="M5 10C2.24316 10 0 7.75723 0 5C0 2.24319 2.24316 0 5 0C7.75721 0 10 2.24279 10 5C10 7.75723 7.75721 10 5 10ZM5 0.717461C2.63849 0.717461 0.717451 2.63849 0.717451 5.00001C0.717451 7.36119 2.63849 9.28255 4.99999 9.28255C7.36118 9.28255 9.28255 7.36151 9.28255 5.00001C9.28255 2.63849 7.36118 0.717461 4.99999 0.717461H5ZM4.46191 2.66826C4.46191 2.52737 4.51989 2.38736 4.61951 2.28778C4.71914 2.18817 4.8591 2.13014 4.99999 2.13014C5.1409 2.13014 5.28085 2.18816 5.38049 2.28778C5.4801 2.38736 5.53808 2.52737 5.53808 2.66826C5.53808 2.80911 5.48011 2.94912 5.38049 3.04876C5.28086 3.14837 5.1409 3.20635 4.99999 3.20635C4.8591 3.20635 4.71914 3.14838 4.61952 3.04876C4.51989 2.94912 4.46192 2.80911 4.46192 2.66826H4.46191ZM5 7.86987C4.80195 7.86987 4.64125 7.70948 4.64125 7.51111V4.28256C4.64125 4.08451 4.80196 3.9238 4.99999 3.9238C5.19804 3.9238 5.35875 4.08451 5.35875 4.28256V7.51111C5.35875 7.70948 5.19804 7.86987 4.99999 7.86987H5Z" fill="currentColor"/>
</svg>
