<svg width="16" height="16" viewBox="0 0 16 16" fill="none" xmlns="http://www.w3.org/2000/svg">
<g clip-path="url(#clip0_313_11238)">
<path d="M4.33337 5.33331C4.33337 5.0681 4.43873 4.81374 4.62627 4.62621C4.8138 4.43867 5.06816 4.33331 5.33337 4.33331C5.59859 4.33331 5.85294 4.43867 6.04048 4.62621C6.22802 4.81374 6.33337 5.0681 6.33337 5.33331C6.33337 5.59853 6.22802 5.85288 6.04048 6.04042C5.85294 6.22796 5.59859 6.33331 5.33337 6.33331C5.06816 6.33331 4.8138 6.22796 4.62627 6.04042C4.43873 5.85288 4.33337 5.59853 4.33337 5.33331Z" fill="currentColor"/>
<path d="M6.50529 0.666687C6.77663 0.666687 7.01529 0.666687 7.24796 0.72202C7.45203 0.771193 7.64708 0.852184 7.82596 0.96202C8.02996 1.08602 8.19863 1.25535 8.38996 1.44735L8.42996 1.48735L13.5613 6.61869C13.9413 6.99869 14.2546 7.31135 14.488 7.58735C14.732 7.87402 14.9286 8.16402 15.0413 8.50936C15.2153 9.04491 15.2153 9.6218 15.0413 10.1574C14.9286 10.5027 14.732 10.7927 14.488 11.0794C14.2546 11.3554 13.9413 11.6687 13.5613 12.048L12.048 13.5614C11.668 13.9414 11.3553 14.2547 11.0793 14.488C10.7926 14.732 10.5026 14.9287 10.1573 15.0414C9.62174 15.2154 9.04485 15.2154 8.50929 15.0414C8.16396 14.9287 7.87396 14.732 7.58729 14.488C7.31129 14.2547 6.99796 13.9414 6.61863 13.5614L1.48663 8.43002L1.44729 8.39002C1.25529 8.19869 1.08596 8.03002 0.961293 7.82602C0.851457 7.64714 0.770465 7.45209 0.721293 7.24802C0.666626 7.01602 0.666626 6.77669 0.666626 6.50535V3.44135C0.666626 3.08935 0.666626 2.78669 0.686626 2.53669C0.708626 2.27335 0.755959 2.01135 0.884626 1.75869C1.07648 1.38263 1.38242 1.07692 1.75863 0.885354C2.01063 0.75602 2.27329 0.708687 2.53663 0.687354C2.78663 0.666687 3.08996 0.666687 3.43996 0.666687H6.50529ZM6.93663 2.01869C6.87796 2.00469 6.80729 2.00002 6.44996 2.00002H3.46663C3.08196 2.00002 2.83396 2.00002 2.64529 2.01602C2.46396 2.03069 2.39663 2.05602 2.36396 2.07269C2.23852 2.1366 2.13654 2.23858 2.07263 2.36402C2.05596 2.39735 2.03063 2.46402 2.01596 2.64535C1.99996 2.83335 1.99996 3.08269 1.99996 3.46669V6.45002C1.99996 6.80735 2.00396 6.87802 2.01863 6.93669C2.03495 7.00494 2.06195 7.07019 2.09863 7.13002C2.12996 7.18135 2.17663 7.23402 2.42929 7.48669L7.54196 12.5994C7.94596 13.0034 8.22063 13.2774 8.44996 13.472C8.67396 13.662 8.80996 13.7367 8.92129 13.7734C9.18907 13.8604 9.47752 13.8604 9.74529 13.7734C9.85663 13.7367 9.99263 13.662 10.2166 13.472C10.446 13.2774 10.7206 13.0034 11.1246 12.5987L12.5993 11.1254C13.0026 10.7207 13.2773 10.446 13.472 10.2167C13.662 9.99335 13.7366 9.85669 13.7726 9.74535C13.86 9.47736 13.86 9.18935 13.7726 8.92135C13.7366 8.81002 13.662 8.67402 13.472 8.45002C13.2773 8.22069 13.0026 7.94602 12.5986 7.54202L7.48663 2.42935C7.23329 2.17602 7.18063 2.12935 7.12929 2.09802C7.06967 2.06141 7.00465 2.03441 6.93663 2.01802V2.01869Z" fill="currentColor"/>
</g>
<defs>
<clipPath id="clip0_313_11238">
<rect width="16" height="16" fill="currentColor"/>
</clipPath>
</defs>
</svg>
