<svg width="64" height="64" viewBox="0 0 64 64" fill="none" xmlns="http://www.w3.org/2000/svg">
<g clip-path="url(#clip0_370_19376)">
<path d="M47.9996 23.9995C45.7916 23.9995 43.9996 25.7915 43.9996 27.9995C43.9996 30.2075 45.7916 31.9994 47.9996 31.9994C50.2076 31.9994 51.9995 30.2074 51.9995 27.9994C51.9995 25.7914 50.2076 23.9995 47.9996 23.9995ZM32 51.9989C29.664 51.9989 27.4081 51.7269 25.2401 51.2649L15.8243 56.9248L15.9502 47.647C8.73245 43.3071 4.00046 36.1312 4.00046 27.9995C4.00046 14.7457 16.5362 3.99988 32 3.99988C47.4637 3.99988 59.9993 14.7456 59.9993 27.9994C59.9993 41.2551 47.4636 51.9989 32 51.9989ZM32 0C14.3283 0 0.000579834 12.5378 0.000579834 27.9994C0.000579834 36.8372 4.69052 44.7071 12.0004 49.8369V63.9987L26.0181 55.4928C27.9581 55.8128 29.954 55.9987 32 55.9987C49.6715 55.9987 63.9993 43.463 63.9993 27.9994C63.9993 12.5377 49.6716 0 31.9999 0H32ZM16.0003 23.9995C13.7923 23.9995 12.0004 25.7915 12.0004 27.9995C12.0004 30.2075 13.7923 31.9994 16.0003 31.9994C18.2082 31.9994 20.0002 30.2074 20.0002 27.9994C20.0002 25.7914 18.2082 23.9995 16.0002 23.9995H16.0003ZM32 23.9995C29.792 23.9995 28 25.7915 28 27.9995C28 30.2075 29.792 31.9994 32 31.9994C34.208 31.9994 35.9999 30.2074 35.9999 27.9994C35.9999 25.7914 34.2079 23.9995 31.9999 23.9995H32Z" fill="currentColor"/>
</g>
<defs>
<clipPath id="clip0_370_19376">
<rect width="64" height="64" fill="currentColor"/>
</clipPath>
</defs>
</svg>
