<svg width="21" height="20" viewBox="0 0 21 20" fill="none" xmlns="http://www.w3.org/2000/svg">
<path d="M20.855 10H20.875C20.875 4.48 16.395 -2.34375e-08 10.875 0C5.355 2.34375e-08 0.875 4.47 0.875 10C0.875 15.53 5.355 20 10.875 20V19.98C16.385 19.98 20.845 15.51 20.855 10ZM10.855 17.98V18C6.445 18 2.875 14.41 2.875 10C2.875 5.59 6.455 2 10.875 2C15.295 2 18.865 5.57 18.875 9.98H18.855C18.855 14.4 15.275 17.98 10.855 17.98Z" fill="currentColor"/>
<path d="M13.535 9.72998C13.055 9.40998 12.475 9.19998 11.855 9.07998V7.13998C12.245 7.26998 12.535 7.44998 12.695 7.62998C13.055 8.04998 13.685 8.08998 14.105 7.72998C14.525 7.36998 14.565 6.73998 14.205 6.31998C13.645 5.66998 12.795 5.24998 11.855 5.06998V4.97998C11.855 4.42998 11.405 3.97998 10.855 3.97998C10.305 3.97998 9.85498 4.42998 9.85498 4.97998V5.07998C9.23498 5.19998 8.65498 5.40998 8.17498 5.72998C7.45498 6.20998 6.85498 6.98998 6.85498 7.97998C6.85498 8.96998 7.45498 9.74998 8.17498 10.23C8.65498 10.55 9.23498 10.76 9.85498 10.88V12.82C9.46498 12.69 9.17498 12.51 9.01498 12.33C8.92908 12.2307 8.82442 12.1493 8.70701 12.0905C8.58959 12.0317 8.46172 11.9966 8.33074 11.9873C8.19975 11.978 8.06822 11.9947 7.94368 12.0363C7.81914 12.078 7.70404 12.1438 7.60498 12.23C7.18498 12.59 7.14498 13.22 7.50498 13.64C8.06498 14.29 8.91498 14.71 9.85498 14.89V14.98C9.85498 15.53 10.305 15.98 10.855 15.98C11.405 15.98 11.855 15.53 11.855 14.98V14.88C12.475 14.76 13.055 14.55 13.535 14.23C14.255 13.75 14.855 12.97 14.855 11.98C14.855 10.99 14.255 10.21 13.535 9.72998ZM9.28498 8.55998C8.92498 8.31998 8.85498 8.08998 8.85498 7.97998C8.85498 7.86998 8.92498 7.63998 9.28498 7.39998C9.43498 7.29998 9.63498 7.20998 9.85498 7.13998V8.82998C9.65487 8.76746 9.46338 8.68011 9.28498 8.56998V8.55998ZM12.425 12.56C12.275 12.66 12.075 12.75 11.855 12.82V11.13C12.075 11.2 12.265 11.29 12.425 11.39C12.785 11.63 12.855 11.86 12.855 11.97C12.855 12.08 12.785 12.31 12.425 12.55V12.56Z" fill="currentColor"/>
</svg>
