<svg width="16" height="16" viewBox="0 0 16 16" fill="none" xmlns="http://www.w3.org/2000/svg">
<path d="M5.97011 12.4367C6.26278 12.7433 6.73678 12.7433 7.03011 12.4367L14.4468 4.672C14.5876 4.52176 14.6659 4.32357 14.6659 4.11767C14.6659 3.91176 14.5876 3.71358 14.4468 3.56333C14.3789 3.49079 14.2968 3.43296 14.2056 3.39343C14.1145 3.35389 14.0161 3.3335 13.9168 3.3335C13.8174 3.3335 13.7191 3.35389 13.6279 3.39343C13.5368 3.43296 13.4547 3.49079 13.3868 3.56333L6.50144 10.7713L2.61344 6.70067C2.54553 6.62813 2.46345 6.5703 2.37229 6.53076C2.28112 6.49123 2.18281 6.47083 2.08344 6.47083C1.98408 6.47083 1.88576 6.49123 1.7946 6.53076C1.70343 6.5703 1.62135 6.62813 1.55344 6.70067C1.41245 6.85095 1.33398 7.04927 1.33398 7.25533C1.33398 7.4614 1.41245 7.65972 1.55344 7.81L5.97078 12.4367H5.97011Z" fill="currentColor"/>
</svg>
