<svg width="16" height="16" viewBox="0 0 16 16" fill="none" xmlns="http://www.w3.org/2000/svg">
<path d="M6.08224 0C2.58775 0.887184 0 4.07762 0 7.87726C0 12.3633 3.60683 16 8.05594 16C12.0472 16 15.3604 13.0736 16 9.2324C15.1966 9.52347 14.3302 9.68231 13.4266 9.68231C9.2245 9.68231 5.81818 6.24774 5.81818 2.01083C5.81818 1.32942 5.90635 0.66787 6.07194 0.0388086L6.08268 0H6.08224ZM4.40123 2.19675L4.47731 2.14801L4.47687 2.16606C4.55922 7.07897 8.53438 11.0361 13.4266 11.0361C13.5872 11.0361 13.747 11.0316 13.9063 11.0235L14.0066 11.0162L13.965 11.0952C13.4009 12.1461 12.5712 13.0279 11.5601 13.6512C10.549 14.2745 9.39245 14.6171 8.20766 14.6444L8.05594 14.6462C4.34842 14.6462 1.34266 11.6155 1.34266 7.87726C1.34266 5.52482 2.54299 3.41426 4.40123 2.19675Z" fill="currentColor"/>
</svg>
