<svg width="16" height="16" viewBox="0 0 16 16" fill="none"
     xmlns="http://www.w3.org/2000/svg" aria-hidden="true" focusable="false">
    <path fill-rule="evenodd" clip-rule="evenodd"
          d="M8 16C3.6 16 0 12.4 0 8C0 3.6 3.6 0 8 0C12.4 0 16 3.6 16 8C16 12.4 12.4 16 8 16ZM10.4 7.6C10.3 3.8 9.1 0.8 8 0.8C6.9 0.8 5.7 3.8 5.6 7.6H10.4ZM10.4 8.4H5.6C5.7 12.2 6.9 15.2 8 15.2C9.1 15.2 10.3 12.2 10.4 8.4ZM0.800003 8.4C1 11.6 3.3 14.4 6.5 15C5.5 13.7 4.9 11.2 4.8 8.4H0.800003ZM0.800003 7.6H4.8C4.9 4.7 5.5 2.3 6.5 1C3.3 1.6 1 4.4 0.800003 7.6ZM15.2 7.6C15 4.4 12.7 1.6 9.5 1C10.5 2.3 11.1 4.8 11.2 7.6H15.2ZM15.2 8.4H11.2C11.1 11.3 10.5 13.7 9.5 15C12.7 14.4 15 11.6 15.2 8.4Z"
          fill="currentColor"/>
</svg>
