<svg width="16" height="16" viewBox="0 0 16 16" fill="none" xmlns="http://www.w3.org/2000/svg">
<g clip-path="url(#clip0_994_22189)">
<path d="M15.7096 2.50176L12.9862 0.139258C12.9846 0.137695 12.9831 0.137695 12.9815 0.136133C12.9768 0.131445 12.9721 0.12832 12.9659 0.123633C12.9627 0.12207 12.9612 0.118945 12.9581 0.117383C12.9518 0.112695 12.9456 0.108008 12.9409 0.104883C12.9393 0.10332 12.9377 0.101758 12.9362 0.101758C12.8862 0.0673828 12.8315 0.0408203 12.7737 0.0251953C12.7643 0.0220703 12.7549 0.0205078 12.7456 0.0173828H12.744C12.7346 0.0158203 12.7268 0.0142578 12.7174 0.0126953C12.7159 0.0126953 12.7143 0.0126953 12.7127 0.0111328C12.7049 0.00957031 12.6971 0.00800781 12.6893 0.00800781C12.6877 0.00800781 12.6846 0.00800781 12.6831 0.00644531C12.6752 0.00488281 12.669 0.00488281 12.6612 0.00488281H3.35181C3.34868 0.00488281 3.34399 0.00488281 3.34087 0.00644531C3.33462 0.00644531 3.32837 0.00800781 3.32212 0.00800781C3.31899 0.00800781 3.31587 0.00800781 3.31431 0.00957031C3.30649 0.0111328 3.29868 0.0111328 3.29243 0.0126953C3.29087 0.0126953 3.28774 0.0126953 3.28618 0.0142578C3.27837 0.0158203 3.26899 0.0173828 3.26118 0.0189453C3.25962 0.0189453 3.25962 0.0189453 3.25806 0.0205078C3.24868 0.0220703 3.23931 0.0251953 3.23149 0.0283203H3.22993C3.17056 0.0455078 3.11587 0.0720703 3.06743 0.104883C3.06587 0.106445 3.06431 0.108008 3.06118 0.10957C3.05493 0.114258 3.04868 0.117383 3.04399 0.12207C3.04087 0.123633 3.03931 0.126758 3.03618 0.12832C3.03149 0.133008 3.02681 0.136133 3.02212 0.14082C3.02056 0.142383 3.01899 0.143945 3.01743 0.143945L0.290868 2.50176C0.0549303 2.70645 0.0283678 3.06426 0.233055 3.3002L3.59087 7.19082C2.91587 8.10332 2.51743 9.23301 2.51743 10.4549C2.51743 13.4908 4.97993 15.9549 8.01743 15.9549C11.0549 15.9549 13.5174 13.4924 13.5174 10.4549C13.5174 9.22363 13.1127 8.0877 12.4299 7.17051L15.7706 3.3002C15.9721 3.0627 15.9471 2.70645 15.7096 2.50176ZM8.01587 4.95488C7.62056 4.95488 7.23462 4.99707 6.86274 5.07676L6.09399 3.84238L9.89399 3.86582L9.14399 5.07051C8.77993 4.99395 8.40337 4.95488 8.01587 4.95488ZM10.5971 2.73613L5.38462 2.70488L4.40649 1.13457H11.594L10.5971 2.73613ZM3.25649 1.42988L5.75493 5.43926C5.24399 5.67051 4.77368 5.97676 4.36118 6.34551L1.46118 2.98613L3.25649 1.42988ZM12.0377 12.1533C11.8174 12.6736 11.5018 13.1408 11.1018 13.5408C10.7002 13.9424 10.2346 14.258 9.71431 14.4768C9.17681 14.7033 8.60493 14.8205 8.01431 14.8205C7.42368 14.8205 6.85181 14.7049 6.31431 14.4768C5.79399 14.2564 5.32681 13.9408 4.92681 13.5408C4.52524 13.1393 4.20962 12.6736 3.99087 12.1533C3.76431 11.6158 3.64712 11.0439 3.64712 10.4533C3.64712 9.8627 3.76274 9.29082 3.99087 8.75332C4.21118 8.23301 4.5268 7.76582 4.92681 7.36582C5.32837 6.96426 5.79399 6.64863 6.31431 6.42988C6.85181 6.20176 7.42368 6.08613 8.01431 6.08613C8.60493 6.08613 9.17681 6.20176 9.71431 6.42988C10.2346 6.6502 10.7018 6.96582 11.1018 7.36582C11.5034 7.76738 11.819 8.23301 12.0377 8.75332C12.2643 9.29082 12.3815 9.8627 12.3815 10.4533C12.3815 11.0439 12.2659 11.6158 12.0377 12.1533ZM11.6549 6.32988C11.2393 5.9627 10.769 5.65801 10.2565 5.42988L12.7456 1.42988L14.5409 2.98613L11.6549 6.32988Z" fill="currentColor"/>
<path d="M8 8.3999L8.44903 9.78187H9.90211L8.72654 10.636L9.17557 12.0179L8 11.1638L6.82443 12.0179L7.27346 10.636L6.09789 9.78187H7.55097L8 8.3999Z" fill="currentColor"/>
</g>
<defs>
<clipPath id="clip0_994_22189">
<rect width="16" height="16" fill="currentColor"/>
</clipPath>
</defs>
</svg>
