<svg width="16" height="16" viewBox="0 0 16 16" fill="none" xmlns="http://www.w3.org/2000/svg">
<path d="M8.00002 11.4586C6.0927 11.4586 4.54137 9.90732 4.54137 8C4.54137 6.09268 6.0927 4.54136 8.00002 4.54136C9.90735 4.54136 11.4587 6.09268 11.4587 8C11.4587 9.90732 9.90669 11.4586 8.00002 11.4586ZM8.00002 5.87468C7.43652 5.87521 6.89624 6.0993 6.49778 6.49776C6.09932 6.89622 5.87523 7.43649 5.8747 8C5.87523 8.56351 6.09932 9.10378 6.49778 9.50224C6.89624 9.9007 7.43652 10.1248 8.00002 10.1253C8.56353 10.1248 9.10381 9.9007 9.50227 9.50224C9.90073 9.10378 10.1248 8.56351 10.1254 8C10.1248 7.43649 9.90073 6.89622 9.50227 6.49776C9.10381 6.0993 8.56353 5.87521 8.00002 5.87468ZM8.66669 2.68337C8.66441 2.85794 8.5929 3.02447 8.4679 3.14635C8.34289 3.26823 8.1746 3.3355 8.00002 3.33336C7.63203 3.33336 7.33336 3.04203 7.33336 2.68337V0.650045C7.33564 0.475469 7.40715 0.308942 7.53216 0.18706C7.65716 0.0651782 7.82545 -0.00208615 8.00002 4.93367e-05C8.36802 4.93367e-05 8.66669 0.291381 8.66669 0.650045V2.68337ZM8.66669 15.35C8.66441 15.5245 8.5929 15.6911 8.4679 15.8129C8.34289 15.9348 8.1746 16.0021 8.00002 16C7.63136 16 7.33336 15.708 7.33336 15.35V13.316C7.33449 13.2296 7.35263 13.1442 7.38675 13.0648C7.42087 12.9854 7.47029 12.9135 7.5322 12.8532C7.5941 12.7929 7.66728 12.7454 7.74755 12.7134C7.82782 12.6814 7.91361 12.6655 8.00002 12.6666C8.36802 12.6666 8.66669 12.9573 8.66669 13.3166V15.35ZM2.68337 7.33334C3.04204 7.33334 3.33337 7.632 3.33337 8C3.33337 8.36866 3.04204 8.66666 2.68337 8.66666H0.650047C0.475471 8.66438 0.308943 8.59288 0.187061 8.46787C0.0651784 8.34286 -0.00208615 8.17458 4.93369e-05 8C4.93369e-05 7.632 0.291382 7.33334 0.650047 7.33334H2.68337ZM15.35 7.33334C15.7087 7.33334 16 7.632 16 8C16 8.36866 15.708 8.66666 15.35 8.66666H13.316C13.2296 8.66553 13.1443 8.64739 13.0649 8.61327C12.9855 8.57916 12.9136 8.52974 12.8533 8.46783C12.793 8.40592 12.7454 8.33274 12.7134 8.25247C12.6814 8.1722 12.6655 8.08641 12.6667 8C12.6667 7.632 12.9573 7.33334 13.3167 7.33334H15.35ZM3.76937 11.288C3.83121 11.2276 3.90437 11.1799 3.98465 11.1478C4.06492 11.1157 4.15074 11.0998 4.23719 11.1009C4.32364 11.102 4.40902 11.1202 4.48845 11.1543C4.56787 11.1885 4.63977 11.238 4.70004 11.3C4.76195 11.3603 4.81137 11.4322 4.84548 11.5116C4.87959 11.591 4.89772 11.6764 4.89884 11.7628C4.89995 11.8492 4.88403 11.935 4.85198 12.0153C4.81992 12.0956 4.77237 12.1688 4.71204 12.2306L3.27404 13.6693C3.14879 13.7908 2.98044 13.8577 2.80595 13.8552C2.63146 13.8527 2.46509 13.781 2.34338 13.656C2.2185 13.5341 2.1471 13.3676 2.14485 13.1931C2.1426 13.0186 2.20968 12.8504 2.33138 12.7253L3.76937 11.288ZM12.726 2.33137C12.8511 2.20968 13.0193 2.14259 13.1938 2.14484C13.3683 2.14709 13.5348 2.21849 13.6567 2.34337C13.7816 2.46526 13.853 2.63173 13.8552 2.80622C13.8575 2.98071 13.7904 3.14896 13.6687 3.27403L12.2307 4.71202C12.1688 4.77244 12.0957 4.82006 12.0154 4.85216C11.9351 4.88426 11.8493 4.90021 11.7629 4.8991C11.6764 4.89799 11.591 4.87983 11.5116 4.84567C11.4322 4.8115 11.3603 4.76201 11.3 4.70002C11.2381 4.63975 11.1886 4.56787 11.1544 4.48848C11.1202 4.40909 11.1021 4.32374 11.1009 4.23731C11.0997 4.15089 11.1156 4.06508 11.1476 3.98479C11.1796 3.90449 11.2271 3.83129 11.2873 3.76936L12.726 2.33137ZM3.76937 4.71135C3.89447 4.83317 4.06278 4.90039 4.23738 4.89827C4.41198 4.89614 4.57861 4.82485 4.7007 4.70002C4.76261 4.63971 4.81204 4.56779 4.84615 4.48838C4.88026 4.40896 4.89839 4.3236 4.8995 4.23718C4.90062 4.15075 4.8847 4.06495 4.85264 3.98468C4.82059 3.90441 4.77304 3.83125 4.7127 3.76936L3.27404 2.33003C3.14879 2.20852 2.98044 2.14167 2.80595 2.14417C2.63146 2.14667 2.46509 2.21831 2.34338 2.34337C2.28146 2.40368 2.23204 2.4756 2.19793 2.55501C2.16382 2.63443 2.14569 2.71979 2.14457 2.80621C2.14346 2.89264 2.15938 2.97844 2.19143 3.0587C2.22349 3.13897 2.27104 3.21214 2.33138 3.27403L3.76937 4.71135ZM12.726 13.6686C12.7879 13.7289 12.8611 13.7764 12.9414 13.8084C13.0217 13.8404 13.1075 13.8563 13.194 13.8551C13.2804 13.8539 13.3657 13.8357 13.4451 13.8016C13.5245 13.7674 13.5964 13.7179 13.6567 13.656C13.7816 13.5341 13.853 13.3676 13.8552 13.1931C13.8575 13.0186 13.7904 12.8504 13.6687 12.7253L12.2307 11.2873C12.1688 11.2269 12.0957 11.1793 12.0154 11.1472C11.9351 11.1151 11.8493 11.0991 11.7629 11.1002C11.6764 11.1013 11.591 11.1195 11.5116 11.1537C11.4322 11.1878 11.3603 11.2373 11.3 11.2993C11.2381 11.3596 11.1886 11.4315 11.1544 11.5109C11.1202 11.5902 11.1021 11.6756 11.1009 11.762C11.0997 11.8484 11.1156 11.9343 11.1476 12.0145C11.1796 12.0948 11.2271 12.168 11.2873 12.23L12.726 13.6686Z" fill="currentColor"/>
</svg>
