<svg width="16" height="16" viewBox="0 0 16 16" fill="none" xmlns="http://www.w3.org/2000/svg">
<path d="M11.6357 15.3147C11.6357 15.6933 11.3462 16 10.9899 16H2.54265C1.15112 16 0 14.8889 0 13.4853V2.51467C0 1.11022 1.15018 0 2.54265 0H10.9899C11.3462 0 11.6357 0.306667 11.6357 0.685334C11.6357 1.064 11.3462 1.37156 10.9899 1.37156H2.54265C1.83935 1.37156 1.29254 1.89867 1.29254 2.51467V13.4853C1.29254 14.1013 1.83935 14.6284 2.54265 14.6284H10.9899C11.3462 14.6284 11.6357 14.936 11.6357 15.3147ZM15.8574 8.36267L15.7867 8.43911L11.9081 12.096C11.7788 12.2201 11.6043 12.2932 11.4199 12.3005C11.2355 12.3078 11.0551 12.2486 10.9153 12.1351C10.7754 12.0216 10.6866 11.8622 10.6669 11.6892C10.6471 11.5162 10.6979 11.3426 10.8089 11.2036L10.8796 11.1262L13.5156 8.64H6.25434C6.03467 8.64 5.85366 8.38667 5.82255 8.056L5.81784 7.95467C5.81784 7.60978 5.97905 7.32533 6.18929 7.27644L6.25434 7.26845H13.5165L10.8796 4.78222C10.7562 4.666 10.6813 4.51189 10.6683 4.34793C10.6553 4.18398 10.7052 4.02109 10.8089 3.88889L10.8796 3.81244C11.0028 3.69639 11.1661 3.62585 11.3397 3.61362C11.5134 3.60138 11.686 3.64827 11.8261 3.74578L11.9081 3.81244L15.7867 7.46933C15.91 7.58556 15.985 7.73967 15.998 7.90362C16.011 8.06757 15.9611 8.23047 15.8574 8.36267Z" fill="currentColor"/>
</svg>
