<svg width="22" height="22" viewBox="0 0 22 22" fill="none" xmlns="http://www.w3.org/2000/svg">
<path d="M10.875 21C9.52532 21 8.21564 20.7355 6.98234 20.2139C5.79147 19.7102 4.72208 18.9892 3.80394 18.0711C2.88577 17.1529 2.16485 16.0836 1.66113 14.8927C1.13951 13.6594 0.875 12.3497 0.875 11C0.875 9.65032 1.13951 8.34064 1.66115 7.10734C2.16487 5.91645 2.8858 4.8471 3.80396 3.92894C4.7221 3.0108 5.7915 2.28984 6.98237 1.78615C8.21564 1.26451 9.52535 1 10.875 1C12.2247 1 13.5344 1.26451 14.7677 1.78615C15.9585 2.28984 17.0279 3.0108 17.9461 3.92894C18.8642 4.8471 19.5852 5.91645 20.0889 7.10734C20.6105 8.34064 20.875 9.65032 20.875 11C20.875 12.3497 20.6105 13.6594 20.0889 14.8927C19.5851 16.0836 18.8642 17.1529 17.946 18.0711C17.0279 18.9893 15.9585 19.7102 14.7676 20.2139C13.5344 20.7355 12.2247 21 10.875 21ZM10.875 2.43027C6.14964 2.43027 2.30527 6.27464 2.30527 11C2.30527 15.7254 6.14964 19.5697 10.875 19.5697C15.6004 19.5697 19.4447 15.7254 19.4447 11C19.4447 6.27464 15.6004 2.43027 10.875 2.43027Z" fill="currentColor" stroke="currentColor" stroke-width="0.6"/>
<path d="M9.44482 10.8927C9.44482 11.2721 9.59551 11.6359 9.86374 11.9041C10.132 12.1723 10.4958 12.323 10.8751 12.323C11.2544 12.323 11.6182 12.1723 11.8865 11.9041C12.1547 11.6359 12.3054 11.2721 12.3054 10.8927C12.3054 10.5134 12.1547 10.1496 11.8865 9.88138C11.6182 9.61315 11.2544 9.46246 10.8751 9.46246C10.4958 9.46246 10.132 9.61315 9.86374 9.88138C9.59551 10.1496 9.44482 10.5134 9.44482 10.8927Z" fill="currentColor" stroke="currentColor" stroke-width="0.6"/>
<path d="M5.15381 10.8927C5.15381 11.2721 5.3045 11.6359 5.57273 11.9041C5.84095 12.1723 6.20475 12.323 6.58408 12.323C6.96342 12.323 7.32721 12.1723 7.59544 11.9041C7.86367 11.6359 8.01436 11.2721 8.01436 10.8927C8.01436 10.5134 7.86367 10.1496 7.59544 9.88138C7.32721 9.61315 6.96342 9.46246 6.58408 9.46246C6.20475 9.46246 5.84095 9.61315 5.57273 9.88138C5.3045 10.1496 5.15381 10.5134 5.15381 10.8927Z" fill="currentColor" stroke="currentColor" stroke-width="0.6"/>
<path d="M13.7354 10.8927C13.7354 11.2721 13.886 11.6359 14.1543 11.9041C14.4225 12.1723 14.7863 12.323 15.1656 12.323C15.545 12.323 15.9088 12.1723 16.177 11.9041C16.4452 11.6359 16.5959 11.2721 16.5959 10.8927C16.5959 10.5134 16.4452 10.1496 16.177 9.88138C15.9088 9.61315 15.545 9.46246 15.1656 9.46246C14.7863 9.46246 14.4225 9.61315 14.1543 9.88138C13.886 10.1496 13.7354 10.5134 13.7354 10.8927Z" fill="currentColor" stroke="currentColor" stroke-width="0.6"/>
</svg>
