<svg width="16" height="16" viewBox="0 0 16 16" fill="none" xmlns="http://www.w3.org/2000/svg">
<path d="M14.639 12.8133C13.7095 11.5519 13.1784 10.0249 13.1784 8.49793V7.56846C13.1784 5.3112 11.7178 3.45228 9.7261 2.72199C9.85888 2.45643 9.92527 2.19087 9.92527 1.85892C9.85888 0.863071 9.06219 0 7.99995 0C6.93771 0 6.14103 0.863071 6.14103 1.85892C6.14103 2.19087 6.20742 2.45643 6.3402 2.72199C4.3485 3.38589 2.88792 5.3112 2.88792 7.56846V8.49793C2.88792 10.0913 2.3568 11.6183 1.42734 12.8133C1.29456 13.0124 1.22817 13.278 1.36095 13.5436C1.49373 13.7427 1.6929 13.9419 1.95846 13.9419H5.47713C5.74269 15.1369 6.80493 16 8.06634 16C9.32775 16 10.39 15.1369 10.6556 13.9419H14.1078C14.3734 13.9419 14.5726 13.8091 14.7053 13.5436C14.7717 13.278 14.7717 13.0124 14.639 12.8133ZM7.46883 1.85892C7.46883 1.59336 7.668 1.3278 7.99995 1.3278C8.3319 1.3278 8.53107 1.59336 8.53107 1.85892C8.53107 2.12448 8.3319 2.45643 7.99995 2.45643C7.668 2.45643 7.46883 2.19087 7.46883 1.85892ZM7.99995 14.6058C7.46883 14.6058 7.07049 14.3402 6.80493 13.8755H9.19497C8.92941 14.3402 8.53107 14.6058 7.99995 14.6058ZM3.15348 12.5477C3.81738 11.2863 4.21572 9.89212 4.21572 8.43154V7.50207C4.21572 5.37759 5.94186 3.71784 7.99995 3.71784C10.058 3.71784 11.7842 5.44398 11.7842 7.50207V8.43154C11.7842 9.82573 12.1825 11.2863 12.8464 12.5477H3.15348Z" fill="currentColor"/>
</svg>
