<svg width="16" height="16" viewBox="0 0 16 16" fill="none" xmlns="http://www.w3.org/2000/svg">
<g clip-path="url(#clip0_994_22198)">
<path d="M7.99981 0.799805C6.57578 0.799805 5.18374 1.22208 3.9997 2.01322C2.81567 2.80437 1.89283 3.92886 1.34788 5.24448C0.802924 6.56011 0.66034 8.00779 0.938154 9.40446C1.21597 10.8011 1.9017 12.084 2.90864 13.091C3.91558 14.0979 5.19849 14.7836 6.59516 15.0615C7.99182 15.3393 9.4395 15.1967 10.7551 14.6517C12.0708 14.1068 13.1952 13.1839 13.9864 11.9999C14.7775 10.8159 15.1998 9.42383 15.1998 7.99981C15.1998 7.05429 15.0136 6.11803 14.6517 5.24448C14.2899 4.37094 13.7596 3.57722 13.091 2.90864C12.4224 2.24005 11.6287 1.70971 10.7551 1.34787C9.88159 0.986038 8.94533 0.799805 7.99981 0.799805ZM7.99981 1.7038C9.66896 1.70592 11.2691 2.36993 12.4494 3.5502C13.6297 4.73047 14.2937 6.33065 14.2958 7.99981C14.2978 9.4052 13.8241 10.7699 12.9518 11.8718C12.5336 10.8992 11.8427 10.0686 10.9625 9.48034C10.0823 8.89208 9.05051 8.57137 7.99193 8.55699C6.93335 8.5426 5.89327 8.83515 4.99741 9.39928C4.10155 9.9634 3.38827 10.7749 2.94381 11.7358C2.25011 10.7998 1.8301 9.68944 1.73064 8.52864C1.63117 7.36783 1.85616 6.20222 2.3805 5.16183C2.90485 4.12143 3.70793 3.24717 4.70016 2.63657C5.69239 2.02597 6.83475 1.70304 7.99981 1.7038Z" fill="currentColor"/>
<path d="M5.2959 5.61589C5.2959 6.31394 5.57741 6.9834 6.07851 7.47699C6.57961 7.97059 7.25924 8.24789 7.9679 8.24789C8.67656 8.24789 9.35619 7.97059 9.85729 7.47699C10.3584 6.9834 10.6399 6.31394 10.6399 5.61589C10.6399 4.91784 10.3584 4.24838 9.85729 3.75478C9.35619 3.26119 8.67656 2.98389 7.9679 2.98389C7.25924 2.98389 6.57961 3.26119 6.07851 3.75478C5.57741 4.24838 5.2959 4.91784 5.2959 5.61589Z" fill="currentColor"/>
</g>
<defs>
<clipPath id="clip0_994_22198">
<rect width="16" height="16" fill="currentColor"/>
</clipPath>
</defs>
</svg>
