<svg width="16" height="16" viewBox="0 0 16 16" fill="none" xmlns="http://www.w3.org/2000/svg">
<path d="M13.0678 4.0268H12.6236C12.8489 3.6449 12.9477 3.28064 12.9162 2.94275C12.8899 2.65997 12.7559 2.25552 12.2648 1.9332C11.8576 1.66533 11.334 1.59963 10.7531 1.74476C9.811 1.98129 8.69604 2.79445 7.96295 3.77716C7.22942 2.79447 6.11536 1.98129 5.17331 1.74476C4.59189 1.59869 4.06782 1.66485 3.66068 1.9332C3.16999 2.25552 3.03594 2.65997 3.00975 2.94275C2.97817 3.28064 3.0761 3.6449 3.30226 4.0268H2.85808C2.18552 4.0268 1.63818 4.57456 1.63818 5.24762V6.82006C1.63818 7.35248 1.98935 7.82304 2.49743 7.98106C2.44914 8.11467 2.42386 8.25278 2.42386 8.39274V13.1103C2.42386 13.7829 2.97182 14.3309 3.64444 14.3309H12.2829C12.9554 14.3309 13.5025 13.7829 13.5025 13.1103V8.39272C13.5025 8.25187 13.4782 8.11331 13.4299 7.98059C13.9372 7.82168 14.2875 7.35112 14.2875 6.82004V5.24802C14.2875 4.57501 13.7404 4.0268 13.0678 4.0268ZM12.2828 13.4615H8.39722V8.04109H12.2829C12.4765 8.04109 12.6336 8.19906 12.6336 8.39272V13.1103C12.6335 13.304 12.4765 13.4615 12.2828 13.4615ZM8.87569 4.0268C9.49366 3.314 10.3048 2.75386 10.9634 2.58862C11.3055 2.50287 11.5854 2.52635 11.7881 2.65997C12.0034 2.80146 12.0418 2.92761 12.0504 3.02289C12.0846 3.37225 11.71 3.84328 11.5331 4.0268H8.87569ZM13.4181 5.24804V6.82006C13.4181 7.01372 13.2615 7.17121 13.0678 7.17121H8.39722V4.89663H13.0678C13.2615 4.89663 13.4181 5.05441 13.4181 5.24804ZM7.52825 8.04109V13.4615H3.64442C3.4503 13.4615 3.29321 13.3039 3.29321 13.1103V8.39272C3.29321 8.19906 3.4503 8.04109 3.64442 8.04109H7.52825ZM3.87555 3.02289C3.8841 2.92761 3.92294 2.80144 4.13737 2.65997C4.33866 2.52635 4.61853 2.50172 4.96252 2.58862C5.61749 2.75293 6.42774 3.31313 7.04706 4.0268H4.39193C4.2335 3.86633 3.84077 3.38063 3.87555 3.02289ZM2.50689 5.24804C2.50689 5.05443 2.66398 4.89663 2.85806 4.89663H7.52824V7.17121H2.85806C2.66398 7.17121 2.50689 7.01372 2.50689 6.82006V5.24804Z" fill="currentColor"/>
</svg>
