<svg width="21" height="22" viewBox="0 0 21 22" fill="none" xmlns="http://www.w3.org/2000/svg">
<path d="M20.4149 19.7911L15.9926 15.5493C17.5515 14.0011 18.5133 11.9014 18.5133 9.579C18.5133 4.83881 14.5111 1 9.56917 1C4.62721 1 0.625 4.83881 0.625 9.579C0.625 14.3192 4.62721 18.158 9.56917 18.158C11.5592 18.158 13.3945 17.5323 14.876 16.4825L19.3646 20.7879C19.5084 20.9258 19.6963 21 19.8843 21C20.0722 21 20.2602 20.9258 20.4039 20.7879C20.5476 20.6501 20.625 20.4698 20.625 20.2895C20.625 20.1092 20.5587 19.929 20.4149 19.7911ZM2.10648 9.58961C2.10648 5.64475 5.4564 2.4316 9.56917 2.4316C13.6819 2.4316 17.0319 5.64475 17.0319 9.58961C17.0319 13.5345 13.6819 16.7476 9.56917 16.7476C5.4564 16.7476 2.10648 13.5345 2.10648 9.58961Z" fill="currentColor" stroke="currentColor" stroke-width="0.6"/>
</svg>
